<svg width="264" height="1080" viewBox="0 0 264 1080" fill="none" xmlns="http://www.w3.org/2000/svg">
<g clip-path="url(#clip0_22_2)">
<rect width="264" height="1080" fill="white"/>
<path d="M112.398 149H110.023L110.039 147.773H112.398C113.211 147.773 113.888 147.604 114.43 147.266C114.971 146.922 115.378 146.443 115.648 145.828C115.924 145.208 116.062 144.484 116.062 143.656V142.961C116.062 142.31 115.984 141.732 115.828 141.227C115.672 140.716 115.443 140.286 115.141 139.938C114.839 139.583 114.469 139.315 114.031 139.133C113.599 138.951 113.102 138.859 112.539 138.859H109.977V137.625H112.539C113.284 137.625 113.964 137.75 114.578 138C115.193 138.245 115.721 138.602 116.164 139.07C116.612 139.534 116.956 140.096 117.195 140.758C117.435 141.414 117.555 142.154 117.555 142.977V143.656C117.555 144.479 117.435 145.221 117.195 145.883C116.956 146.539 116.609 147.099 116.156 147.562C115.708 148.026 115.167 148.383 114.531 148.633C113.901 148.878 113.19 149 112.398 149ZM110.828 137.625V149H109.32V137.625H110.828ZM123.109 149.156C122.521 149.156 121.987 149.057 121.508 148.859C121.034 148.656 120.625 148.372 120.281 148.008C119.943 147.643 119.682 147.211 119.5 146.711C119.318 146.211 119.227 145.664 119.227 145.07V144.742C119.227 144.055 119.328 143.443 119.531 142.906C119.734 142.365 120.01 141.906 120.359 141.531C120.708 141.156 121.104 140.872 121.547 140.68C121.99 140.487 122.448 140.391 122.922 140.391C123.526 140.391 124.047 140.495 124.484 140.703C124.927 140.911 125.289 141.203 125.57 141.578C125.852 141.948 126.06 142.385 126.195 142.891C126.331 143.391 126.398 143.938 126.398 144.531V145.18H120.086V144H124.953V143.891C124.932 143.516 124.854 143.151 124.719 142.797C124.589 142.443 124.38 142.151 124.094 141.922C123.807 141.693 123.417 141.578 122.922 141.578C122.594 141.578 122.292 141.648 122.016 141.789C121.74 141.924 121.503 142.128 121.305 142.398C121.107 142.669 120.953 143 120.844 143.391C120.734 143.781 120.68 144.232 120.68 144.742V145.07C120.68 145.471 120.734 145.849 120.844 146.203C120.958 146.552 121.122 146.859 121.336 147.125C121.555 147.391 121.818 147.599 122.125 147.75C122.438 147.901 122.792 147.977 123.188 147.977C123.698 147.977 124.13 147.872 124.484 147.664C124.839 147.456 125.148 147.177 125.414 146.828L126.289 147.523C126.107 147.799 125.875 148.062 125.594 148.312C125.312 148.562 124.966 148.766 124.555 148.922C124.148 149.078 123.667 149.156 123.109 149.156ZM133.008 146.758C133.008 146.549 132.961 146.357 132.867 146.18C132.779 145.997 132.594 145.833 132.312 145.688C132.036 145.536 131.62 145.406 131.062 145.297C130.594 145.198 130.169 145.081 129.789 144.945C129.414 144.81 129.094 144.646 128.828 144.453C128.568 144.26 128.367 144.034 128.227 143.773C128.086 143.513 128.016 143.208 128.016 142.859C128.016 142.526 128.089 142.211 128.234 141.914C128.385 141.617 128.596 141.354 128.867 141.125C129.143 140.896 129.474 140.716 129.859 140.586C130.245 140.456 130.674 140.391 131.148 140.391C131.826 140.391 132.404 140.51 132.883 140.75C133.362 140.99 133.729 141.31 133.984 141.711C134.24 142.107 134.367 142.547 134.367 143.031H132.922C132.922 142.797 132.852 142.57 132.711 142.352C132.576 142.128 132.375 141.943 132.109 141.797C131.849 141.651 131.529 141.578 131.148 141.578C130.747 141.578 130.422 141.641 130.172 141.766C129.927 141.885 129.747 142.039 129.633 142.227C129.523 142.414 129.469 142.612 129.469 142.82C129.469 142.977 129.495 143.117 129.547 143.242C129.604 143.362 129.703 143.474 129.844 143.578C129.984 143.677 130.182 143.771 130.438 143.859C130.693 143.948 131.018 144.036 131.414 144.125C132.107 144.281 132.677 144.469 133.125 144.688C133.573 144.906 133.906 145.174 134.125 145.492C134.344 145.81 134.453 146.195 134.453 146.648C134.453 147.018 134.375 147.357 134.219 147.664C134.068 147.971 133.846 148.237 133.555 148.461C133.268 148.68 132.924 148.852 132.523 148.977C132.128 149.096 131.682 149.156 131.188 149.156C130.443 149.156 129.812 149.023 129.297 148.758C128.781 148.492 128.391 148.148 128.125 147.727C127.859 147.305 127.727 146.859 127.727 146.391H129.18C129.201 146.786 129.315 147.102 129.523 147.336C129.732 147.565 129.987 147.729 130.289 147.828C130.591 147.922 130.891 147.969 131.188 147.969C131.583 147.969 131.914 147.917 132.18 147.812C132.451 147.708 132.656 147.565 132.797 147.383C132.938 147.201 133.008 146.992 133.008 146.758ZM137.797 137V149H136.352V137H137.797ZM137.453 144.453L136.852 144.43C136.857 143.852 136.943 143.318 137.109 142.828C137.276 142.333 137.51 141.904 137.812 141.539C138.115 141.174 138.474 140.893 138.891 140.695C139.312 140.492 139.779 140.391 140.289 140.391C140.706 140.391 141.081 140.448 141.414 140.562C141.747 140.672 142.031 140.849 142.266 141.094C142.505 141.339 142.688 141.656 142.812 142.047C142.938 142.432 143 142.904 143 143.461V149H141.547V143.445C141.547 143.003 141.482 142.648 141.352 142.383C141.221 142.112 141.031 141.917 140.781 141.797C140.531 141.672 140.224 141.609 139.859 141.609C139.5 141.609 139.172 141.685 138.875 141.836C138.583 141.987 138.331 142.195 138.117 142.461C137.909 142.727 137.745 143.031 137.625 143.375C137.51 143.714 137.453 144.073 137.453 144.453ZM145.156 137H146.609V147.359L146.484 149H145.156V137ZM152.32 144.703V144.867C152.32 145.482 152.247 146.052 152.102 146.578C151.956 147.099 151.742 147.552 151.461 147.938C151.18 148.323 150.836 148.622 150.43 148.836C150.023 149.049 149.557 149.156 149.031 149.156C148.495 149.156 148.023 149.065 147.617 148.883C147.216 148.695 146.878 148.427 146.602 148.078C146.326 147.729 146.104 147.307 145.938 146.812C145.776 146.318 145.664 145.76 145.602 145.141V144.422C145.664 143.797 145.776 143.237 145.938 142.742C146.104 142.247 146.326 141.826 146.602 141.477C146.878 141.122 147.216 140.854 147.617 140.672C148.018 140.484 148.484 140.391 149.016 140.391C149.547 140.391 150.018 140.495 150.43 140.703C150.841 140.906 151.185 141.198 151.461 141.578C151.742 141.958 151.956 142.414 152.102 142.945C152.247 143.471 152.32 144.057 152.32 144.703ZM150.867 144.867V144.703C150.867 144.281 150.828 143.885 150.75 143.516C150.672 143.141 150.547 142.812 150.375 142.531C150.203 142.245 149.977 142.021 149.695 141.859C149.414 141.693 149.068 141.609 148.656 141.609C148.292 141.609 147.974 141.672 147.703 141.797C147.438 141.922 147.211 142.091 147.023 142.305C146.836 142.513 146.682 142.753 146.562 143.023C146.448 143.289 146.362 143.565 146.305 143.852V145.734C146.388 146.099 146.523 146.451 146.711 146.789C146.904 147.122 147.159 147.396 147.477 147.609C147.799 147.823 148.198 147.93 148.672 147.93C149.062 147.93 149.396 147.852 149.672 147.695C149.953 147.534 150.18 147.312 150.352 147.031C150.529 146.75 150.659 146.424 150.742 146.055C150.826 145.685 150.867 145.289 150.867 144.867ZM153.766 144.867V144.688C153.766 144.078 153.854 143.513 154.031 142.992C154.208 142.466 154.464 142.01 154.797 141.625C155.13 141.234 155.534 140.932 156.008 140.719C156.482 140.5 157.013 140.391 157.602 140.391C158.195 140.391 158.729 140.5 159.203 140.719C159.682 140.932 160.089 141.234 160.422 141.625C160.76 142.01 161.018 142.466 161.195 142.992C161.372 143.513 161.461 144.078 161.461 144.688V144.867C161.461 145.477 161.372 146.042 161.195 146.562C161.018 147.083 160.76 147.539 160.422 147.93C160.089 148.315 159.685 148.617 159.211 148.836C158.742 149.049 158.211 149.156 157.617 149.156C157.023 149.156 156.49 149.049 156.016 148.836C155.542 148.617 155.135 148.315 154.797 147.93C154.464 147.539 154.208 147.083 154.031 146.562C153.854 146.042 153.766 145.477 153.766 144.867ZM155.211 144.688V144.867C155.211 145.289 155.26 145.688 155.359 146.062C155.458 146.432 155.607 146.76 155.805 147.047C156.008 147.333 156.26 147.56 156.562 147.727C156.865 147.888 157.216 147.969 157.617 147.969C158.013 147.969 158.359 147.888 158.656 147.727C158.958 147.56 159.208 147.333 159.406 147.047C159.604 146.76 159.753 146.432 159.852 146.062C159.956 145.688 160.008 145.289 160.008 144.867V144.688C160.008 144.271 159.956 143.878 159.852 143.508C159.753 143.133 159.602 142.802 159.398 142.516C159.201 142.224 158.951 141.995 158.648 141.828C158.352 141.661 158.003 141.578 157.602 141.578C157.206 141.578 156.857 141.661 156.555 141.828C156.258 141.995 156.008 142.224 155.805 142.516C155.607 142.802 155.458 143.133 155.359 143.508C155.26 143.878 155.211 144.271 155.211 144.688ZM168.258 147.555V143.203C168.258 142.87 168.19 142.581 168.055 142.336C167.924 142.086 167.727 141.893 167.461 141.758C167.195 141.622 166.867 141.555 166.477 141.555C166.112 141.555 165.792 141.617 165.516 141.742C165.245 141.867 165.031 142.031 164.875 142.234C164.724 142.438 164.648 142.656 164.648 142.891H163.203C163.203 142.589 163.281 142.289 163.438 141.992C163.594 141.695 163.818 141.427 164.109 141.188C164.406 140.943 164.76 140.75 165.172 140.609C165.589 140.464 166.052 140.391 166.562 140.391C167.177 140.391 167.719 140.495 168.188 140.703C168.661 140.911 169.031 141.227 169.297 141.648C169.568 142.065 169.703 142.589 169.703 143.219V147.156C169.703 147.438 169.727 147.737 169.773 148.055C169.826 148.372 169.901 148.646 170 148.875V149H168.492C168.419 148.833 168.362 148.612 168.32 148.336C168.279 148.055 168.258 147.794 168.258 147.555ZM168.508 143.875L168.523 144.891H167.062C166.651 144.891 166.284 144.924 165.961 144.992C165.638 145.055 165.367 145.151 165.148 145.281C164.93 145.411 164.763 145.576 164.648 145.773C164.534 145.966 164.477 146.193 164.477 146.453C164.477 146.719 164.536 146.961 164.656 147.18C164.776 147.398 164.956 147.573 165.195 147.703C165.44 147.828 165.74 147.891 166.094 147.891C166.536 147.891 166.927 147.797 167.266 147.609C167.604 147.422 167.872 147.193 168.07 146.922C168.273 146.651 168.383 146.388 168.398 146.133L169.016 146.828C168.979 147.047 168.88 147.289 168.719 147.555C168.557 147.82 168.341 148.076 168.07 148.32C167.805 148.56 167.487 148.76 167.117 148.922C166.753 149.078 166.341 149.156 165.883 149.156C165.31 149.156 164.807 149.044 164.375 148.82C163.948 148.596 163.615 148.297 163.375 147.922C163.141 147.542 163.023 147.117 163.023 146.648C163.023 146.195 163.112 145.797 163.289 145.453C163.466 145.104 163.721 144.815 164.055 144.586C164.388 144.352 164.789 144.174 165.258 144.055C165.727 143.935 166.25 143.875 166.828 143.875H168.508ZM173.422 141.875V149H171.977V140.547H173.383L173.422 141.875ZM176.062 140.5L176.055 141.844C175.935 141.818 175.82 141.802 175.711 141.797C175.607 141.786 175.487 141.781 175.352 141.781C175.018 141.781 174.724 141.833 174.469 141.938C174.214 142.042 173.997 142.188 173.82 142.375C173.643 142.562 173.503 142.786 173.398 143.047C173.299 143.302 173.234 143.583 173.203 143.891L172.797 144.125C172.797 143.615 172.846 143.135 172.945 142.688C173.049 142.24 173.208 141.844 173.422 141.5C173.635 141.151 173.906 140.88 174.234 140.688C174.568 140.49 174.964 140.391 175.422 140.391C175.526 140.391 175.646 140.404 175.781 140.43C175.917 140.451 176.01 140.474 176.062 140.5ZM182.57 147.359V137H184.023V149H182.695L182.57 147.359ZM176.883 144.867V144.703C176.883 144.057 176.961 143.471 177.117 142.945C177.279 142.414 177.505 141.958 177.797 141.578C178.094 141.198 178.445 140.906 178.852 140.703C179.263 140.495 179.721 140.391 180.227 140.391C180.758 140.391 181.221 140.484 181.617 140.672C182.018 140.854 182.357 141.122 182.633 141.477C182.914 141.826 183.135 142.247 183.297 142.742C183.458 143.237 183.57 143.797 183.633 144.422V145.141C183.576 145.76 183.464 146.318 183.297 146.812C183.135 147.307 182.914 147.729 182.633 148.078C182.357 148.427 182.018 148.695 181.617 148.883C181.216 149.065 180.747 149.156 180.211 149.156C179.716 149.156 179.263 149.049 178.852 148.836C178.445 148.622 178.094 148.323 177.797 147.938C177.505 147.552 177.279 147.099 177.117 146.578C176.961 146.052 176.883 145.482 176.883 144.867ZM178.336 144.703V144.867C178.336 145.289 178.378 145.685 178.461 146.055C178.549 146.424 178.685 146.75 178.867 147.031C179.049 147.312 179.281 147.534 179.562 147.695C179.844 147.852 180.18 147.93 180.57 147.93C181.049 147.93 181.443 147.828 181.75 147.625C182.062 147.422 182.312 147.154 182.5 146.82C182.688 146.487 182.833 146.125 182.938 145.734V143.852C182.875 143.565 182.784 143.289 182.664 143.023C182.549 142.753 182.398 142.513 182.211 142.305C182.029 142.091 181.802 141.922 181.531 141.797C181.266 141.672 180.951 141.609 180.586 141.609C180.19 141.609 179.849 141.693 179.562 141.859C179.281 142.021 179.049 142.245 178.867 142.531C178.685 142.812 178.549 143.141 178.461 143.516C178.378 143.885 178.336 144.281 178.336 144.703Z" fill="#27374D"/>
<g clip-path="url(#clip1_22_2)">
<path d="M99 137V139H95V137H99ZM89 137V143H85V137H89ZM99 145V151H95V145H99ZM89 149V151H85V149H89ZM101 135H93V141H101V135ZM91 135H83V145H91V135ZM101 143H93V153H101V143ZM91 147H83V153H91V147Z" fill="#9DB2BF"/>
</g>
<g clip-path="url(#clip2_22_2)">
<path d="M50 138L48.59 139.41L53.17 144L48.59 148.59L50 150L56 144L50 138Z" fill="#9DB2BF"/>
</g>
<path d="M113.516 192.539H110.477V191.312H113.516C114.104 191.312 114.581 191.219 114.945 191.031C115.31 190.844 115.576 190.583 115.742 190.25C115.914 189.917 116 189.536 116 189.109C116 188.719 115.914 188.352 115.742 188.008C115.576 187.664 115.31 187.388 114.945 187.18C114.581 186.966 114.104 186.859 113.516 186.859H110.828V197H109.32V185.625H113.516C114.375 185.625 115.102 185.773 115.695 186.07C116.289 186.367 116.74 186.779 117.047 187.305C117.354 187.826 117.508 188.422 117.508 189.094C117.508 189.823 117.354 190.445 117.047 190.961C116.74 191.477 116.289 191.87 115.695 192.141C115.102 192.406 114.375 192.539 113.516 192.539ZM120.641 189.875V197H119.195V188.547H120.602L120.641 189.875ZM123.281 188.5L123.273 189.844C123.154 189.818 123.039 189.802 122.93 189.797C122.826 189.786 122.706 189.781 122.57 189.781C122.237 189.781 121.943 189.833 121.688 189.938C121.432 190.042 121.216 190.188 121.039 190.375C120.862 190.562 120.721 190.786 120.617 191.047C120.518 191.302 120.453 191.583 120.422 191.891L120.016 192.125C120.016 191.615 120.065 191.135 120.164 190.688C120.268 190.24 120.427 189.844 120.641 189.5C120.854 189.151 121.125 188.88 121.453 188.688C121.786 188.49 122.182 188.391 122.641 188.391C122.745 188.391 122.865 188.404 123 188.43C123.135 188.451 123.229 188.474 123.281 188.5ZM124.078 192.867V192.688C124.078 192.078 124.167 191.513 124.344 190.992C124.521 190.466 124.776 190.01 125.109 189.625C125.443 189.234 125.846 188.932 126.32 188.719C126.794 188.5 127.326 188.391 127.914 188.391C128.508 188.391 129.042 188.5 129.516 188.719C129.995 188.932 130.401 189.234 130.734 189.625C131.073 190.01 131.331 190.466 131.508 190.992C131.685 191.513 131.773 192.078 131.773 192.688V192.867C131.773 193.477 131.685 194.042 131.508 194.562C131.331 195.083 131.073 195.539 130.734 195.93C130.401 196.315 129.997 196.617 129.523 196.836C129.055 197.049 128.523 197.156 127.93 197.156C127.336 197.156 126.802 197.049 126.328 196.836C125.854 196.617 125.448 196.315 125.109 195.93C124.776 195.539 124.521 195.083 124.344 194.562C124.167 194.042 124.078 193.477 124.078 192.867ZM125.523 192.688V192.867C125.523 193.289 125.573 193.688 125.672 194.062C125.771 194.432 125.919 194.76 126.117 195.047C126.32 195.333 126.573 195.56 126.875 195.727C127.177 195.888 127.529 195.969 127.93 195.969C128.326 195.969 128.672 195.888 128.969 195.727C129.271 195.56 129.521 195.333 129.719 195.047C129.917 194.76 130.065 194.432 130.164 194.062C130.268 193.688 130.32 193.289 130.32 192.867V192.688C130.32 192.271 130.268 191.878 130.164 191.508C130.065 191.133 129.914 190.802 129.711 190.516C129.513 190.224 129.263 189.995 128.961 189.828C128.664 189.661 128.315 189.578 127.914 189.578C127.518 189.578 127.169 189.661 126.867 189.828C126.57 189.995 126.32 190.224 126.117 190.516C125.919 190.802 125.771 191.133 125.672 191.508C125.573 191.878 125.523 192.271 125.523 192.688ZM138.914 195.359V185H140.367V197H139.039L138.914 195.359ZM133.227 192.867V192.703C133.227 192.057 133.305 191.471 133.461 190.945C133.622 190.414 133.849 189.958 134.141 189.578C134.438 189.198 134.789 188.906 135.195 188.703C135.607 188.495 136.065 188.391 136.57 188.391C137.102 188.391 137.565 188.484 137.961 188.672C138.362 188.854 138.701 189.122 138.977 189.477C139.258 189.826 139.479 190.247 139.641 190.742C139.802 191.237 139.914 191.797 139.977 192.422V193.141C139.919 193.76 139.807 194.318 139.641 194.812C139.479 195.307 139.258 195.729 138.977 196.078C138.701 196.427 138.362 196.695 137.961 196.883C137.56 197.065 137.091 197.156 136.555 197.156C136.06 197.156 135.607 197.049 135.195 196.836C134.789 196.622 134.438 196.323 134.141 195.938C133.849 195.552 133.622 195.099 133.461 194.578C133.305 194.052 133.227 193.482 133.227 192.867ZM134.68 192.703V192.867C134.68 193.289 134.721 193.685 134.805 194.055C134.893 194.424 135.029 194.75 135.211 195.031C135.393 195.312 135.625 195.534 135.906 195.695C136.188 195.852 136.523 195.93 136.914 195.93C137.393 195.93 137.786 195.828 138.094 195.625C138.406 195.422 138.656 195.154 138.844 194.82C139.031 194.487 139.177 194.125 139.281 193.734V191.852C139.219 191.565 139.128 191.289 139.008 191.023C138.893 190.753 138.742 190.513 138.555 190.305C138.372 190.091 138.146 189.922 137.875 189.797C137.609 189.672 137.294 189.609 136.93 189.609C136.534 189.609 136.193 189.693 135.906 189.859C135.625 190.021 135.393 190.245 135.211 190.531C135.029 190.812 134.893 191.141 134.805 191.516C134.721 191.885 134.68 192.281 134.68 192.703ZM147.789 195.047V188.547H149.242V197H147.859L147.789 195.047ZM148.062 193.266L148.664 193.25C148.664 193.812 148.604 194.333 148.484 194.812C148.37 195.286 148.182 195.698 147.922 196.047C147.661 196.396 147.32 196.669 146.898 196.867C146.477 197.06 145.964 197.156 145.359 197.156C144.948 197.156 144.57 197.096 144.227 196.977C143.888 196.857 143.596 196.672 143.352 196.422C143.107 196.172 142.917 195.846 142.781 195.445C142.651 195.044 142.586 194.562 142.586 194V188.547H144.031V194.016C144.031 194.396 144.073 194.711 144.156 194.961C144.245 195.206 144.362 195.401 144.508 195.547C144.659 195.688 144.826 195.786 145.008 195.844C145.195 195.901 145.388 195.93 145.586 195.93C146.201 195.93 146.688 195.812 147.047 195.578C147.406 195.339 147.664 195.018 147.82 194.617C147.982 194.211 148.062 193.76 148.062 193.266ZM154.828 195.969C155.172 195.969 155.49 195.898 155.781 195.758C156.073 195.617 156.312 195.424 156.5 195.18C156.688 194.93 156.794 194.646 156.82 194.328H158.195C158.169 194.828 158 195.294 157.688 195.727C157.38 196.154 156.977 196.5 156.477 196.766C155.977 197.026 155.427 197.156 154.828 197.156C154.193 197.156 153.638 197.044 153.164 196.82C152.695 196.596 152.305 196.289 151.992 195.898C151.685 195.508 151.453 195.06 151.297 194.555C151.146 194.044 151.07 193.505 151.07 192.938V192.609C151.07 192.042 151.146 191.505 151.297 191C151.453 190.49 151.685 190.039 151.992 189.648C152.305 189.258 152.695 188.951 153.164 188.727C153.638 188.503 154.193 188.391 154.828 188.391C155.49 188.391 156.068 188.526 156.562 188.797C157.057 189.062 157.445 189.427 157.727 189.891C158.013 190.349 158.169 190.87 158.195 191.453H156.82C156.794 191.104 156.695 190.789 156.523 190.508C156.357 190.227 156.128 190.003 155.836 189.836C155.549 189.664 155.214 189.578 154.828 189.578C154.385 189.578 154.013 189.667 153.711 189.844C153.414 190.016 153.177 190.25 153 190.547C152.828 190.839 152.703 191.164 152.625 191.523C152.552 191.878 152.516 192.24 152.516 192.609V192.938C152.516 193.307 152.552 193.672 152.625 194.031C152.698 194.391 152.82 194.716 152.992 195.008C153.169 195.299 153.406 195.534 153.703 195.711C154.005 195.883 154.38 195.969 154.828 195.969ZM163.359 188.547V189.656H158.789V188.547H163.359ZM160.336 186.492H161.781V194.906C161.781 195.193 161.826 195.409 161.914 195.555C162.003 195.701 162.117 195.797 162.258 195.844C162.398 195.891 162.549 195.914 162.711 195.914C162.831 195.914 162.956 195.904 163.086 195.883C163.221 195.857 163.323 195.836 163.391 195.82L163.398 197C163.284 197.036 163.133 197.07 162.945 197.102C162.763 197.138 162.542 197.156 162.281 197.156C161.927 197.156 161.602 197.086 161.305 196.945C161.008 196.805 160.771 196.57 160.594 196.242C160.422 195.909 160.336 195.461 160.336 194.898V186.492ZM169.977 194.758C169.977 194.549 169.93 194.357 169.836 194.18C169.747 193.997 169.562 193.833 169.281 193.688C169.005 193.536 168.589 193.406 168.031 193.297C167.562 193.198 167.138 193.081 166.758 192.945C166.383 192.81 166.062 192.646 165.797 192.453C165.536 192.26 165.336 192.034 165.195 191.773C165.055 191.513 164.984 191.208 164.984 190.859C164.984 190.526 165.057 190.211 165.203 189.914C165.354 189.617 165.565 189.354 165.836 189.125C166.112 188.896 166.443 188.716 166.828 188.586C167.214 188.456 167.643 188.391 168.117 188.391C168.794 188.391 169.372 188.51 169.852 188.75C170.331 188.99 170.698 189.31 170.953 189.711C171.208 190.107 171.336 190.547 171.336 191.031H169.891C169.891 190.797 169.82 190.57 169.68 190.352C169.544 190.128 169.344 189.943 169.078 189.797C168.818 189.651 168.497 189.578 168.117 189.578C167.716 189.578 167.391 189.641 167.141 189.766C166.896 189.885 166.716 190.039 166.602 190.227C166.492 190.414 166.438 190.612 166.438 190.82C166.438 190.977 166.464 191.117 166.516 191.242C166.573 191.362 166.672 191.474 166.812 191.578C166.953 191.677 167.151 191.771 167.406 191.859C167.661 191.948 167.987 192.036 168.383 192.125C169.076 192.281 169.646 192.469 170.094 192.688C170.542 192.906 170.875 193.174 171.094 193.492C171.312 193.81 171.422 194.195 171.422 194.648C171.422 195.018 171.344 195.357 171.188 195.664C171.036 195.971 170.815 196.237 170.523 196.461C170.237 196.68 169.893 196.852 169.492 196.977C169.096 197.096 168.651 197.156 168.156 197.156C167.411 197.156 166.781 197.023 166.266 196.758C165.75 196.492 165.359 196.148 165.094 195.727C164.828 195.305 164.695 194.859 164.695 194.391H166.148C166.169 194.786 166.284 195.102 166.492 195.336C166.701 195.565 166.956 195.729 167.258 195.828C167.56 195.922 167.859 195.969 168.156 195.969C168.552 195.969 168.883 195.917 169.148 195.812C169.419 195.708 169.625 195.565 169.766 195.383C169.906 195.201 169.977 194.992 169.977 194.758Z" fill="#27374D"/>
<g clip-path="url(#clip3_22_2)">
<path d="M98 186H96C96 183.79 94.21 182 92 182C89.79 182 88 183.79 88 186H86C84.9 186 84 186.9 84 188V200C84 201.1 84.9 202 86 202H98C99.1 202 100 201.1 100 200V188C100 186.9 99.1 186 98 186ZM92 184C93.1 184 94 184.9 94 186H90C90 184.9 90.9 184 92 184ZM98 200H86V188H88V190C88 190.55 88.45 191 89 191C89.55 191 90 190.55 90 190V188H94V190C94 190.55 94.45 191 95 191C95.55 191 96 190.55 96 190V188H98V200Z" fill="#9DB2BF"/>
</g>
<g clip-path="url(#clip4_22_2)">
<path d="M50 186L48.59 187.41L53.17 192L48.59 196.59L50 198L56 192L50 186Z" fill="#9DB2BF"/>
</g>
<path d="M109.797 233.625H111.258L114.984 242.898L118.703 233.625H120.172L115.547 245H114.406L109.797 233.625ZM109.32 233.625H110.609L110.82 240.562V245H109.32V233.625ZM119.352 233.625H120.641V245H119.141V240.562L119.352 233.625ZM126.578 245.156C125.99 245.156 125.456 245.057 124.977 244.859C124.503 244.656 124.094 244.372 123.75 244.008C123.411 243.643 123.151 243.211 122.969 242.711C122.786 242.211 122.695 241.664 122.695 241.07V240.742C122.695 240.055 122.797 239.443 123 238.906C123.203 238.365 123.479 237.906 123.828 237.531C124.177 237.156 124.573 236.872 125.016 236.68C125.458 236.487 125.917 236.391 126.391 236.391C126.995 236.391 127.516 236.495 127.953 236.703C128.396 236.911 128.758 237.203 129.039 237.578C129.32 237.948 129.529 238.385 129.664 238.891C129.799 239.391 129.867 239.938 129.867 240.531V241.18H123.555V240H128.422V239.891C128.401 239.516 128.323 239.151 128.188 238.797C128.057 238.443 127.849 238.151 127.562 237.922C127.276 237.693 126.885 237.578 126.391 237.578C126.062 237.578 125.76 237.648 125.484 237.789C125.208 237.924 124.971 238.128 124.773 238.398C124.576 238.669 124.422 239 124.312 239.391C124.203 239.781 124.148 240.232 124.148 240.742V241.07C124.148 241.471 124.203 241.849 124.312 242.203C124.427 242.552 124.591 242.859 124.805 243.125C125.023 243.391 125.286 243.599 125.594 243.75C125.906 243.901 126.26 243.977 126.656 243.977C127.167 243.977 127.599 243.872 127.953 243.664C128.307 243.456 128.617 243.177 128.883 242.828L129.758 243.523C129.576 243.799 129.344 244.062 129.062 244.312C128.781 244.562 128.435 244.766 128.023 244.922C127.617 245.078 127.135 245.156 126.578 245.156ZM136.477 242.758C136.477 242.549 136.43 242.357 136.336 242.18C136.247 241.997 136.062 241.833 135.781 241.688C135.505 241.536 135.089 241.406 134.531 241.297C134.062 241.198 133.638 241.081 133.258 240.945C132.883 240.81 132.562 240.646 132.297 240.453C132.036 240.26 131.836 240.034 131.695 239.773C131.555 239.513 131.484 239.208 131.484 238.859C131.484 238.526 131.557 238.211 131.703 237.914C131.854 237.617 132.065 237.354 132.336 237.125C132.612 236.896 132.943 236.716 133.328 236.586C133.714 236.456 134.143 236.391 134.617 236.391C135.294 236.391 135.872 236.51 136.352 236.75C136.831 236.99 137.198 237.31 137.453 237.711C137.708 238.107 137.836 238.547 137.836 239.031H136.391C136.391 238.797 136.32 238.57 136.18 238.352C136.044 238.128 135.844 237.943 135.578 237.797C135.318 237.651 134.997 237.578 134.617 237.578C134.216 237.578 133.891 237.641 133.641 237.766C133.396 237.885 133.216 238.039 133.102 238.227C132.992 238.414 132.938 238.612 132.938 238.82C132.938 238.977 132.964 239.117 133.016 239.242C133.073 239.362 133.172 239.474 133.312 239.578C133.453 239.677 133.651 239.771 133.906 239.859C134.161 239.948 134.487 240.036 134.883 240.125C135.576 240.281 136.146 240.469 136.594 240.688C137.042 240.906 137.375 241.174 137.594 241.492C137.812 241.81 137.922 242.195 137.922 242.648C137.922 243.018 137.844 243.357 137.688 243.664C137.536 243.971 137.315 244.237 137.023 244.461C136.737 244.68 136.393 244.852 135.992 244.977C135.596 245.096 135.151 245.156 134.656 245.156C133.911 245.156 133.281 245.023 132.766 244.758C132.25 244.492 131.859 244.148 131.594 243.727C131.328 243.305 131.195 242.859 131.195 242.391H132.648C132.669 242.786 132.784 243.102 132.992 243.336C133.201 243.565 133.456 243.729 133.758 243.828C134.06 243.922 134.359 243.969 134.656 243.969C135.052 243.969 135.383 243.917 135.648 243.812C135.919 243.708 136.125 243.565 136.266 243.383C136.406 243.201 136.477 242.992 136.477 242.758ZM144.742 242.758C144.742 242.549 144.695 242.357 144.602 242.18C144.513 241.997 144.328 241.833 144.047 241.688C143.771 241.536 143.354 241.406 142.797 241.297C142.328 241.198 141.904 241.081 141.523 240.945C141.148 240.81 140.828 240.646 140.562 240.453C140.302 240.26 140.102 240.034 139.961 239.773C139.82 239.513 139.75 239.208 139.75 238.859C139.75 238.526 139.823 238.211 139.969 237.914C140.12 237.617 140.331 237.354 140.602 237.125C140.878 236.896 141.208 236.716 141.594 236.586C141.979 236.456 142.409 236.391 142.883 236.391C143.56 236.391 144.138 236.51 144.617 236.75C145.096 236.99 145.464 237.31 145.719 237.711C145.974 238.107 146.102 238.547 146.102 239.031H144.656C144.656 238.797 144.586 238.57 144.445 238.352C144.31 238.128 144.109 237.943 143.844 237.797C143.583 237.651 143.263 237.578 142.883 237.578C142.482 237.578 142.156 237.641 141.906 237.766C141.661 237.885 141.482 238.039 141.367 238.227C141.258 238.414 141.203 238.612 141.203 238.82C141.203 238.977 141.229 239.117 141.281 239.242C141.339 239.362 141.438 239.474 141.578 239.578C141.719 239.677 141.917 239.771 142.172 239.859C142.427 239.948 142.753 240.036 143.148 240.125C143.841 240.281 144.411 240.469 144.859 240.688C145.307 240.906 145.641 241.174 145.859 241.492C146.078 241.81 146.188 242.195 146.188 242.648C146.188 243.018 146.109 243.357 145.953 243.664C145.802 243.971 145.581 244.237 145.289 244.461C145.003 244.68 144.659 244.852 144.258 244.977C143.862 245.096 143.417 245.156 142.922 245.156C142.177 245.156 141.547 245.023 141.031 244.758C140.516 244.492 140.125 244.148 139.859 243.727C139.594 243.305 139.461 242.859 139.461 242.391H140.914C140.935 242.786 141.049 243.102 141.258 243.336C141.466 243.565 141.721 243.729 142.023 243.828C142.326 243.922 142.625 243.969 142.922 243.969C143.318 243.969 143.648 243.917 143.914 243.812C144.185 243.708 144.391 243.565 144.531 243.383C144.672 243.201 144.742 242.992 144.742 242.758ZM153.07 243.555V239.203C153.07 238.87 153.003 238.581 152.867 238.336C152.737 238.086 152.539 237.893 152.273 237.758C152.008 237.622 151.68 237.555 151.289 237.555C150.924 237.555 150.604 237.617 150.328 237.742C150.057 237.867 149.844 238.031 149.688 238.234C149.536 238.438 149.461 238.656 149.461 238.891H148.016C148.016 238.589 148.094 238.289 148.25 237.992C148.406 237.695 148.63 237.427 148.922 237.188C149.219 236.943 149.573 236.75 149.984 236.609C150.401 236.464 150.865 236.391 151.375 236.391C151.99 236.391 152.531 236.495 153 236.703C153.474 236.911 153.844 237.227 154.109 237.648C154.38 238.065 154.516 238.589 154.516 239.219V243.156C154.516 243.438 154.539 243.737 154.586 244.055C154.638 244.372 154.714 244.646 154.812 244.875V245H153.305C153.232 244.833 153.174 244.612 153.133 244.336C153.091 244.055 153.07 243.794 153.07 243.555ZM153.32 239.875L153.336 240.891H151.875C151.464 240.891 151.096 240.924 150.773 240.992C150.451 241.055 150.18 241.151 149.961 241.281C149.742 241.411 149.576 241.576 149.461 241.773C149.346 241.966 149.289 242.193 149.289 242.453C149.289 242.719 149.349 242.961 149.469 243.18C149.589 243.398 149.768 243.573 150.008 243.703C150.253 243.828 150.552 243.891 150.906 243.891C151.349 243.891 151.74 243.797 152.078 243.609C152.417 243.422 152.685 243.193 152.883 242.922C153.086 242.651 153.195 242.388 153.211 242.133L153.828 242.828C153.792 243.047 153.693 243.289 153.531 243.555C153.37 243.82 153.154 244.076 152.883 244.32C152.617 244.56 152.299 244.76 151.93 244.922C151.565 245.078 151.154 245.156 150.695 245.156C150.122 245.156 149.62 245.044 149.188 244.82C148.76 244.596 148.427 244.297 148.188 243.922C147.953 243.542 147.836 243.117 147.836 242.648C147.836 242.195 147.924 241.797 148.102 241.453C148.279 241.104 148.534 240.815 148.867 240.586C149.201 240.352 149.602 240.174 150.07 240.055C150.539 239.935 151.062 239.875 151.641 239.875H153.32ZM162.266 236.547H163.578V244.82C163.578 245.565 163.427 246.201 163.125 246.727C162.823 247.253 162.401 247.651 161.859 247.922C161.323 248.198 160.703 248.336 160 248.336C159.708 248.336 159.365 248.289 158.969 248.195C158.578 248.107 158.193 247.953 157.812 247.734C157.438 247.521 157.122 247.232 156.867 246.867L157.625 246.008C157.979 246.435 158.349 246.732 158.734 246.898C159.125 247.065 159.51 247.148 159.891 247.148C160.349 247.148 160.745 247.062 161.078 246.891C161.411 246.719 161.669 246.464 161.852 246.125C162.039 245.792 162.133 245.38 162.133 244.891V238.406L162.266 236.547ZM156.445 240.867V240.703C156.445 240.057 156.521 239.471 156.672 238.945C156.828 238.414 157.049 237.958 157.336 237.578C157.628 237.198 157.979 236.906 158.391 236.703C158.802 236.495 159.266 236.391 159.781 236.391C160.312 236.391 160.776 236.484 161.172 236.672C161.573 236.854 161.911 237.122 162.188 237.477C162.469 237.826 162.69 238.247 162.852 238.742C163.013 239.237 163.125 239.797 163.188 240.422V241.141C163.13 241.76 163.018 242.318 162.852 242.812C162.69 243.307 162.469 243.729 162.188 244.078C161.911 244.427 161.573 244.695 161.172 244.883C160.771 245.065 160.302 245.156 159.766 245.156C159.26 245.156 158.802 245.049 158.391 244.836C157.984 244.622 157.635 244.323 157.344 243.938C157.052 243.552 156.828 243.099 156.672 242.578C156.521 242.052 156.445 241.482 156.445 240.867ZM157.891 240.703V240.867C157.891 241.289 157.932 241.685 158.016 242.055C158.104 242.424 158.237 242.75 158.414 243.031C158.596 243.312 158.828 243.534 159.109 243.695C159.391 243.852 159.727 243.93 160.117 243.93C160.596 243.93 160.992 243.828 161.305 243.625C161.617 243.422 161.865 243.154 162.047 242.82C162.234 242.487 162.38 242.125 162.484 241.734V239.852C162.427 239.565 162.339 239.289 162.219 239.023C162.104 238.753 161.953 238.513 161.766 238.305C161.583 238.091 161.357 237.922 161.086 237.797C160.815 237.672 160.497 237.609 160.133 237.609C159.737 237.609 159.396 237.693 159.109 237.859C158.828 238.021 158.596 238.245 158.414 238.531C158.237 238.812 158.104 239.141 158.016 239.516C157.932 239.885 157.891 240.281 157.891 240.703ZM169.281 245.156C168.693 245.156 168.159 245.057 167.68 244.859C167.206 244.656 166.797 244.372 166.453 244.008C166.115 243.643 165.854 243.211 165.672 242.711C165.49 242.211 165.398 241.664 165.398 241.07V240.742C165.398 240.055 165.5 239.443 165.703 238.906C165.906 238.365 166.182 237.906 166.531 237.531C166.88 237.156 167.276 236.872 167.719 236.68C168.161 236.487 168.62 236.391 169.094 236.391C169.698 236.391 170.219 236.495 170.656 236.703C171.099 236.911 171.461 237.203 171.742 237.578C172.023 237.948 172.232 238.385 172.367 238.891C172.503 239.391 172.57 239.938 172.57 240.531V241.18H166.258V240H171.125V239.891C171.104 239.516 171.026 239.151 170.891 238.797C170.76 238.443 170.552 238.151 170.266 237.922C169.979 237.693 169.589 237.578 169.094 237.578C168.766 237.578 168.464 237.648 168.188 237.789C167.911 237.924 167.674 238.128 167.477 238.398C167.279 238.669 167.125 239 167.016 239.391C166.906 239.781 166.852 240.232 166.852 240.742V241.07C166.852 241.471 166.906 241.849 167.016 242.203C167.13 242.552 167.294 242.859 167.508 243.125C167.727 243.391 167.99 243.599 168.297 243.75C168.609 243.901 168.964 243.977 169.359 243.977C169.87 243.977 170.302 243.872 170.656 243.664C171.01 243.456 171.32 243.177 171.586 242.828L172.461 243.523C172.279 243.799 172.047 244.062 171.766 244.312C171.484 244.562 171.138 244.766 170.727 244.922C170.32 245.078 169.839 245.156 169.281 245.156ZM179.18 242.758C179.18 242.549 179.133 242.357 179.039 242.18C178.951 241.997 178.766 241.833 178.484 241.688C178.208 241.536 177.792 241.406 177.234 241.297C176.766 241.198 176.341 241.081 175.961 240.945C175.586 240.81 175.266 240.646 175 240.453C174.74 240.26 174.539 240.034 174.398 239.773C174.258 239.513 174.188 239.208 174.188 238.859C174.188 238.526 174.26 238.211 174.406 237.914C174.557 237.617 174.768 237.354 175.039 237.125C175.315 236.896 175.646 236.716 176.031 236.586C176.417 236.456 176.846 236.391 177.32 236.391C177.997 236.391 178.576 236.51 179.055 236.75C179.534 236.99 179.901 237.31 180.156 237.711C180.411 238.107 180.539 238.547 180.539 239.031H179.094C179.094 238.797 179.023 238.57 178.883 238.352C178.747 238.128 178.547 237.943 178.281 237.797C178.021 237.651 177.701 237.578 177.32 237.578C176.919 237.578 176.594 237.641 176.344 237.766C176.099 237.885 175.919 238.039 175.805 238.227C175.695 238.414 175.641 238.612 175.641 238.82C175.641 238.977 175.667 239.117 175.719 239.242C175.776 239.362 175.875 239.474 176.016 239.578C176.156 239.677 176.354 239.771 176.609 239.859C176.865 239.948 177.19 240.036 177.586 240.125C178.279 240.281 178.849 240.469 179.297 240.688C179.745 240.906 180.078 241.174 180.297 241.492C180.516 241.81 180.625 242.195 180.625 242.648C180.625 243.018 180.547 243.357 180.391 243.664C180.24 243.971 180.018 244.237 179.727 244.461C179.44 244.68 179.096 244.852 178.695 244.977C178.299 245.096 177.854 245.156 177.359 245.156C176.615 245.156 175.984 245.023 175.469 244.758C174.953 244.492 174.562 244.148 174.297 243.727C174.031 243.305 173.898 242.859 173.898 242.391H175.352C175.372 242.786 175.487 243.102 175.695 243.336C175.904 243.565 176.159 243.729 176.461 243.828C176.763 243.922 177.062 243.969 177.359 243.969C177.755 243.969 178.086 243.917 178.352 243.812C178.622 243.708 178.828 243.565 178.969 243.383C179.109 243.201 179.18 242.992 179.18 242.758Z" fill="#27374D"/>
<g clip-path="url(#clip5_22_2)">
<path d="M102 234C102 232.9 101.1 232 100 232H84C82.9 232 82 232.9 82 234V246C82 247.1 82.9 248 84 248H100C101.1 248 102 247.1 102 246V234ZM100 234L92 239L84 234H100ZM100 246H84V236L92 241L100 236V246Z" fill="#9DB2BF"/>
</g>
<g clip-path="url(#clip6_22_2)">
<path d="M50 234L48.59 235.41L53.17 240L48.59 244.59L50 246L56 240L50 234Z" fill="#9DB2BF"/>
</g>
<path d="M118.078 286.953V287.672C118.078 288.526 117.971 289.292 117.758 289.969C117.544 290.646 117.237 291.221 116.836 291.695C116.435 292.169 115.953 292.531 115.391 292.781C114.833 293.031 114.208 293.156 113.516 293.156C112.844 293.156 112.227 293.031 111.664 292.781C111.107 292.531 110.622 292.169 110.211 291.695C109.805 291.221 109.49 290.646 109.266 289.969C109.042 289.292 108.93 288.526 108.93 287.672V286.953C108.93 286.099 109.039 285.336 109.258 284.664C109.482 283.987 109.797 283.411 110.203 282.938C110.609 282.458 111.091 282.094 111.648 281.844C112.211 281.594 112.828 281.469 113.5 281.469C114.193 281.469 114.818 281.594 115.375 281.844C115.938 282.094 116.419 282.458 116.82 282.938C117.227 283.411 117.536 283.987 117.75 284.664C117.969 285.336 118.078 286.099 118.078 286.953ZM116.586 287.672V286.938C116.586 286.26 116.516 285.661 116.375 285.141C116.24 284.62 116.039 284.182 115.773 283.828C115.508 283.474 115.182 283.206 114.797 283.023C114.417 282.841 113.984 282.75 113.5 282.75C113.031 282.75 112.607 282.841 112.227 283.023C111.852 283.206 111.529 283.474 111.258 283.828C110.992 284.182 110.786 284.62 110.641 285.141C110.495 285.661 110.422 286.26 110.422 286.938V287.672C110.422 288.354 110.495 288.958 110.641 289.484C110.786 290.005 110.995 290.445 111.266 290.805C111.542 291.159 111.867 291.427 112.242 291.609C112.622 291.792 113.047 291.883 113.516 291.883C114.005 291.883 114.44 291.792 114.82 291.609C115.201 291.427 115.521 291.159 115.781 290.805C116.047 290.445 116.247 290.005 116.383 289.484C116.518 288.958 116.586 288.354 116.586 287.672ZM121.562 285.875V293H120.117V284.547H121.523L121.562 285.875ZM124.203 284.5L124.195 285.844C124.076 285.818 123.961 285.802 123.852 285.797C123.747 285.786 123.628 285.781 123.492 285.781C123.159 285.781 122.865 285.833 122.609 285.938C122.354 286.042 122.138 286.188 121.961 286.375C121.784 286.562 121.643 286.786 121.539 287.047C121.44 287.302 121.375 287.583 121.344 287.891L120.938 288.125C120.938 287.615 120.987 287.135 121.086 286.688C121.19 286.24 121.349 285.844 121.562 285.5C121.776 285.151 122.047 284.88 122.375 284.688C122.708 284.49 123.104 284.391 123.562 284.391C123.667 284.391 123.786 284.404 123.922 284.43C124.057 284.451 124.151 284.474 124.203 284.5ZM130.711 291.359V281H132.164V293H130.836L130.711 291.359ZM125.023 288.867V288.703C125.023 288.057 125.102 287.471 125.258 286.945C125.419 286.414 125.646 285.958 125.938 285.578C126.234 285.198 126.586 284.906 126.992 284.703C127.404 284.495 127.862 284.391 128.367 284.391C128.898 284.391 129.362 284.484 129.758 284.672C130.159 284.854 130.497 285.122 130.773 285.477C131.055 285.826 131.276 286.247 131.438 286.742C131.599 287.237 131.711 287.797 131.773 288.422V289.141C131.716 289.76 131.604 290.318 131.438 290.812C131.276 291.307 131.055 291.729 130.773 292.078C130.497 292.427 130.159 292.695 129.758 292.883C129.357 293.065 128.888 293.156 128.352 293.156C127.857 293.156 127.404 293.049 126.992 292.836C126.586 292.622 126.234 292.323 125.938 291.938C125.646 291.552 125.419 291.099 125.258 290.578C125.102 290.052 125.023 289.482 125.023 288.867ZM126.477 288.703V288.867C126.477 289.289 126.518 289.685 126.602 290.055C126.69 290.424 126.826 290.75 127.008 291.031C127.19 291.312 127.422 291.534 127.703 291.695C127.984 291.852 128.32 291.93 128.711 291.93C129.19 291.93 129.583 291.828 129.891 291.625C130.203 291.422 130.453 291.154 130.641 290.82C130.828 290.487 130.974 290.125 131.078 289.734V287.852C131.016 287.565 130.924 287.289 130.805 287.023C130.69 286.753 130.539 286.513 130.352 286.305C130.169 286.091 129.943 285.922 129.672 285.797C129.406 285.672 129.091 285.609 128.727 285.609C128.331 285.609 127.99 285.693 127.703 285.859C127.422 286.021 127.19 286.245 127.008 286.531C126.826 286.812 126.69 287.141 126.602 287.516C126.518 287.885 126.477 288.281 126.477 288.703ZM137.922 293.156C137.333 293.156 136.799 293.057 136.32 292.859C135.846 292.656 135.438 292.372 135.094 292.008C134.755 291.643 134.495 291.211 134.312 290.711C134.13 290.211 134.039 289.664 134.039 289.07V288.742C134.039 288.055 134.141 287.443 134.344 286.906C134.547 286.365 134.823 285.906 135.172 285.531C135.521 285.156 135.917 284.872 136.359 284.68C136.802 284.487 137.26 284.391 137.734 284.391C138.339 284.391 138.859 284.495 139.297 284.703C139.74 284.911 140.102 285.203 140.383 285.578C140.664 285.948 140.872 286.385 141.008 286.891C141.143 287.391 141.211 287.938 141.211 288.531V289.18H134.898V288H139.766V287.891C139.745 287.516 139.667 287.151 139.531 286.797C139.401 286.443 139.193 286.151 138.906 285.922C138.62 285.693 138.229 285.578 137.734 285.578C137.406 285.578 137.104 285.648 136.828 285.789C136.552 285.924 136.315 286.128 136.117 286.398C135.919 286.669 135.766 287 135.656 287.391C135.547 287.781 135.492 288.232 135.492 288.742V289.07C135.492 289.471 135.547 289.849 135.656 290.203C135.771 290.552 135.935 290.859 136.148 291.125C136.367 291.391 136.63 291.599 136.938 291.75C137.25 291.901 137.604 291.977 138 291.977C138.51 291.977 138.943 291.872 139.297 291.664C139.651 291.456 139.961 291.177 140.227 290.828L141.102 291.523C140.919 291.799 140.688 292.062 140.406 292.312C140.125 292.562 139.779 292.766 139.367 292.922C138.961 293.078 138.479 293.156 137.922 293.156ZM144.344 285.875V293H142.898V284.547H144.305L144.344 285.875ZM146.984 284.5L146.977 285.844C146.857 285.818 146.742 285.802 146.633 285.797C146.529 285.786 146.409 285.781 146.273 285.781C145.94 285.781 145.646 285.833 145.391 285.938C145.135 286.042 144.919 286.188 144.742 286.375C144.565 286.562 144.424 286.786 144.32 287.047C144.221 287.302 144.156 287.583 144.125 287.891L143.719 288.125C143.719 287.615 143.768 287.135 143.867 286.688C143.971 286.24 144.13 285.844 144.344 285.5C144.557 285.151 144.828 284.88 145.156 284.688C145.49 284.49 145.885 284.391 146.344 284.391C146.448 284.391 146.568 284.404 146.703 284.43C146.839 284.451 146.932 284.474 146.984 284.5Z" fill="#27374D"/>
<g clip-path="url(#clip7_22_2)">
<path d="M83 294H89V292H83V294ZM83 282V284H101V282H83ZM83 289H95V287H83V289Z" fill="#9DB2BF"/>
</g>
<g clip-path="url(#clip8_22_2)">
<path d="M50 282L48.59 283.41L53.17 288L48.59 292.59L50 294L56 288L50 282Z" fill="#9DB2BF"/>
</g>
<path d="M116.188 337.383H117.688C117.609 338.102 117.404 338.745 117.07 339.312C116.737 339.88 116.266 340.331 115.656 340.664C115.047 340.992 114.286 341.156 113.375 341.156C112.708 341.156 112.102 341.031 111.555 340.781C111.013 340.531 110.547 340.177 110.156 339.719C109.766 339.255 109.464 338.701 109.25 338.055C109.042 337.404 108.938 336.68 108.938 335.883V334.75C108.938 333.953 109.042 333.232 109.25 332.586C109.464 331.935 109.768 331.378 110.164 330.914C110.565 330.451 111.047 330.094 111.609 329.844C112.172 329.594 112.805 329.469 113.508 329.469C114.367 329.469 115.094 329.63 115.688 329.953C116.281 330.276 116.742 330.724 117.07 331.297C117.404 331.865 117.609 332.523 117.688 333.273H116.188C116.115 332.742 115.979 332.286 115.781 331.906C115.583 331.521 115.302 331.224 114.938 331.016C114.573 330.807 114.096 330.703 113.508 330.703C113.003 330.703 112.557 330.799 112.172 330.992C111.792 331.185 111.471 331.458 111.211 331.812C110.956 332.167 110.763 332.591 110.633 333.086C110.503 333.581 110.438 334.13 110.438 334.734V335.883C110.438 336.44 110.495 336.964 110.609 337.453C110.729 337.943 110.909 338.372 111.148 338.742C111.388 339.112 111.693 339.404 112.062 339.617C112.432 339.826 112.87 339.93 113.375 339.93C114.016 339.93 114.526 339.828 114.906 339.625C115.286 339.422 115.573 339.13 115.766 338.75C115.964 338.37 116.104 337.914 116.188 337.383ZM124.508 339.555V335.203C124.508 334.87 124.44 334.581 124.305 334.336C124.174 334.086 123.977 333.893 123.711 333.758C123.445 333.622 123.117 333.555 122.727 333.555C122.362 333.555 122.042 333.617 121.766 333.742C121.495 333.867 121.281 334.031 121.125 334.234C120.974 334.438 120.898 334.656 120.898 334.891H119.453C119.453 334.589 119.531 334.289 119.688 333.992C119.844 333.695 120.068 333.427 120.359 333.188C120.656 332.943 121.01 332.75 121.422 332.609C121.839 332.464 122.302 332.391 122.812 332.391C123.427 332.391 123.969 332.495 124.438 332.703C124.911 332.911 125.281 333.227 125.547 333.648C125.818 334.065 125.953 334.589 125.953 335.219V339.156C125.953 339.438 125.977 339.737 126.023 340.055C126.076 340.372 126.151 340.646 126.25 340.875V341H124.742C124.669 340.833 124.612 340.612 124.57 340.336C124.529 340.055 124.508 339.794 124.508 339.555ZM124.758 335.875L124.773 336.891H123.312C122.901 336.891 122.534 336.924 122.211 336.992C121.888 337.055 121.617 337.151 121.398 337.281C121.18 337.411 121.013 337.576 120.898 337.773C120.784 337.966 120.727 338.193 120.727 338.453C120.727 338.719 120.786 338.961 120.906 339.18C121.026 339.398 121.206 339.573 121.445 339.703C121.69 339.828 121.99 339.891 122.344 339.891C122.786 339.891 123.177 339.797 123.516 339.609C123.854 339.422 124.122 339.193 124.32 338.922C124.523 338.651 124.633 338.388 124.648 338.133L125.266 338.828C125.229 339.047 125.13 339.289 124.969 339.555C124.807 339.82 124.591 340.076 124.32 340.32C124.055 340.56 123.737 340.76 123.367 340.922C123.003 341.078 122.591 341.156 122.133 341.156C121.56 341.156 121.057 341.044 120.625 340.82C120.198 340.596 119.865 340.297 119.625 339.922C119.391 339.542 119.273 339.117 119.273 338.648C119.273 338.195 119.362 337.797 119.539 337.453C119.716 337.104 119.971 336.815 120.305 336.586C120.638 336.352 121.039 336.174 121.508 336.055C121.977 335.935 122.5 335.875 123.078 335.875H124.758ZM129.797 329V341H128.344V329H129.797ZM135.625 341.156C135.036 341.156 134.503 341.057 134.023 340.859C133.549 340.656 133.141 340.372 132.797 340.008C132.458 339.643 132.198 339.211 132.016 338.711C131.833 338.211 131.742 337.664 131.742 337.07V336.742C131.742 336.055 131.844 335.443 132.047 334.906C132.25 334.365 132.526 333.906 132.875 333.531C133.224 333.156 133.62 332.872 134.062 332.68C134.505 332.487 134.964 332.391 135.438 332.391C136.042 332.391 136.562 332.495 137 332.703C137.443 332.911 137.805 333.203 138.086 333.578C138.367 333.948 138.576 334.385 138.711 334.891C138.846 335.391 138.914 335.938 138.914 336.531V337.18H132.602V336H137.469V335.891C137.448 335.516 137.37 335.151 137.234 334.797C137.104 334.443 136.896 334.151 136.609 333.922C136.323 333.693 135.932 333.578 135.438 333.578C135.109 333.578 134.807 333.648 134.531 333.789C134.255 333.924 134.018 334.128 133.82 334.398C133.622 334.669 133.469 335 133.359 335.391C133.25 335.781 133.195 336.232 133.195 336.742V337.07C133.195 337.471 133.25 337.849 133.359 338.203C133.474 338.552 133.638 338.859 133.852 339.125C134.07 339.391 134.333 339.599 134.641 339.75C134.953 339.901 135.307 339.977 135.703 339.977C136.214 339.977 136.646 339.872 137 339.664C137.354 339.456 137.664 339.177 137.93 338.828L138.805 339.523C138.622 339.799 138.391 340.062 138.109 340.312C137.828 340.562 137.482 340.766 137.07 340.922C136.664 341.078 136.182 341.156 135.625 341.156ZM142.047 334.352V341H140.602V332.547H141.969L142.047 334.352ZM141.703 336.453L141.102 336.43C141.107 335.852 141.193 335.318 141.359 334.828C141.526 334.333 141.76 333.904 142.062 333.539C142.365 333.174 142.724 332.893 143.141 332.695C143.562 332.492 144.029 332.391 144.539 332.391C144.956 332.391 145.331 332.448 145.664 332.562C145.997 332.672 146.281 332.849 146.516 333.094C146.755 333.339 146.938 333.656 147.062 334.047C147.188 334.432 147.25 334.904 147.25 335.461V341H145.797V335.445C145.797 335.003 145.732 334.648 145.602 334.383C145.471 334.112 145.281 333.917 145.031 333.797C144.781 333.672 144.474 333.609 144.109 333.609C143.75 333.609 143.422 333.685 143.125 333.836C142.833 333.987 142.581 334.195 142.367 334.461C142.159 334.727 141.995 335.031 141.875 335.375C141.76 335.714 141.703 336.073 141.703 336.453ZM154.773 339.359V329H156.227V341H154.898L154.773 339.359ZM149.086 336.867V336.703C149.086 336.057 149.164 335.471 149.32 334.945C149.482 334.414 149.708 333.958 150 333.578C150.297 333.198 150.648 332.906 151.055 332.703C151.466 332.495 151.924 332.391 152.43 332.391C152.961 332.391 153.424 332.484 153.82 332.672C154.221 332.854 154.56 333.122 154.836 333.477C155.117 333.826 155.339 334.247 155.5 334.742C155.661 335.237 155.773 335.797 155.836 336.422V337.141C155.779 337.76 155.667 338.318 155.5 338.812C155.339 339.307 155.117 339.729 154.836 340.078C154.56 340.427 154.221 340.695 153.82 340.883C153.419 341.065 152.951 341.156 152.414 341.156C151.919 341.156 151.466 341.049 151.055 340.836C150.648 340.622 150.297 340.323 150 339.938C149.708 339.552 149.482 339.099 149.32 338.578C149.164 338.052 149.086 337.482 149.086 336.867ZM150.539 336.703V336.867C150.539 337.289 150.581 337.685 150.664 338.055C150.753 338.424 150.888 338.75 151.07 339.031C151.253 339.312 151.484 339.534 151.766 339.695C152.047 339.852 152.383 339.93 152.773 339.93C153.253 339.93 153.646 339.828 153.953 339.625C154.266 339.422 154.516 339.154 154.703 338.82C154.891 338.487 155.036 338.125 155.141 337.734V335.852C155.078 335.565 154.987 335.289 154.867 335.023C154.753 334.753 154.602 334.513 154.414 334.305C154.232 334.091 154.005 333.922 153.734 333.797C153.469 333.672 153.154 333.609 152.789 333.609C152.393 333.609 152.052 333.693 151.766 333.859C151.484 334.021 151.253 334.245 151.07 334.531C150.888 334.812 150.753 335.141 150.664 335.516C150.581 335.885 150.539 336.281 150.539 336.703ZM163.461 339.555V335.203C163.461 334.87 163.393 334.581 163.258 334.336C163.128 334.086 162.93 333.893 162.664 333.758C162.398 333.622 162.07 333.555 161.68 333.555C161.315 333.555 160.995 333.617 160.719 333.742C160.448 333.867 160.234 334.031 160.078 334.234C159.927 334.438 159.852 334.656 159.852 334.891H158.406C158.406 334.589 158.484 334.289 158.641 333.992C158.797 333.695 159.021 333.427 159.312 333.188C159.609 332.943 159.964 332.75 160.375 332.609C160.792 332.464 161.255 332.391 161.766 332.391C162.38 332.391 162.922 332.495 163.391 332.703C163.865 332.911 164.234 333.227 164.5 333.648C164.771 334.065 164.906 334.589 164.906 335.219V339.156C164.906 339.438 164.93 339.737 164.977 340.055C165.029 340.372 165.104 340.646 165.203 340.875V341H163.695C163.622 340.833 163.565 340.612 163.523 340.336C163.482 340.055 163.461 339.794 163.461 339.555ZM163.711 335.875L163.727 336.891H162.266C161.854 336.891 161.487 336.924 161.164 336.992C160.841 337.055 160.57 337.151 160.352 337.281C160.133 337.411 159.966 337.576 159.852 337.773C159.737 337.966 159.68 338.193 159.68 338.453C159.68 338.719 159.74 338.961 159.859 339.18C159.979 339.398 160.159 339.573 160.398 339.703C160.643 339.828 160.943 339.891 161.297 339.891C161.74 339.891 162.13 339.797 162.469 339.609C162.807 339.422 163.076 339.193 163.273 338.922C163.477 338.651 163.586 338.388 163.602 338.133L164.219 338.828C164.182 339.047 164.083 339.289 163.922 339.555C163.76 339.82 163.544 340.076 163.273 340.32C163.008 340.56 162.69 340.76 162.32 340.922C161.956 341.078 161.544 341.156 161.086 341.156C160.513 341.156 160.01 341.044 159.578 340.82C159.151 340.596 158.818 340.297 158.578 339.922C158.344 339.542 158.227 339.117 158.227 338.648C158.227 338.195 158.315 337.797 158.492 337.453C158.669 337.104 158.924 336.815 159.258 336.586C159.591 336.352 159.992 336.174 160.461 336.055C160.93 335.935 161.453 335.875 162.031 335.875H163.711ZM168.625 333.875V341H167.18V332.547H168.586L168.625 333.875ZM171.266 332.5L171.258 333.844C171.138 333.818 171.023 333.802 170.914 333.797C170.81 333.786 170.69 333.781 170.555 333.781C170.221 333.781 169.927 333.833 169.672 333.938C169.417 334.042 169.201 334.188 169.023 334.375C168.846 334.562 168.706 334.786 168.602 335.047C168.503 335.302 168.438 335.583 168.406 335.891L168 336.125C168 335.615 168.049 335.135 168.148 334.688C168.253 334.24 168.411 333.844 168.625 333.5C168.839 333.151 169.109 332.88 169.438 332.688C169.771 332.49 170.167 332.391 170.625 332.391C170.729 332.391 170.849 332.404 170.984 332.43C171.12 332.451 171.214 332.474 171.266 332.5Z" fill="#27374D"/>
<g clip-path="url(#clip9_22_2)">
<path d="M99 328H98V326H96V328H88V326H86V328H85C83.89 328 83.01 328.9 83.01 330L83 344C83 345.1 83.89 346 85 346H99C100.1 346 101 345.1 101 344V330C101 328.9 100.1 328 99 328ZM99 344H85V334H99V344ZM99 332H85V330H99V332ZM89 338H87V336H89V338ZM93 338H91V336H93V338ZM97 338H95V336H97V338ZM89 342H87V340H89V342ZM93 342H91V340H93V342ZM97 342H95V340H97V342Z" fill="#9DB2BF"/>
</g>
<g clip-path="url(#clip10_22_2)">
<path d="M50 330L48.59 331.41L53.17 336L48.59 340.59L50 342L56 336L50 330Z" fill="#9DB2BF"/>
</g>
<path d="M113.531 378.633L109.766 389H108.227L112.562 377.625H113.555L113.531 378.633ZM116.688 389L112.914 378.633L112.891 377.625H113.883L118.234 389H116.688ZM116.492 384.789V386.023H110.102V384.789H116.492ZM122.922 387.969C123.266 387.969 123.583 387.898 123.875 387.758C124.167 387.617 124.406 387.424 124.594 387.18C124.781 386.93 124.888 386.646 124.914 386.328H126.289C126.263 386.828 126.094 387.294 125.781 387.727C125.474 388.154 125.07 388.5 124.57 388.766C124.07 389.026 123.521 389.156 122.922 389.156C122.286 389.156 121.732 389.044 121.258 388.82C120.789 388.596 120.398 388.289 120.086 387.898C119.779 387.508 119.547 387.06 119.391 386.555C119.24 386.044 119.164 385.505 119.164 384.938V384.609C119.164 384.042 119.24 383.505 119.391 383C119.547 382.49 119.779 382.039 120.086 381.648C120.398 381.258 120.789 380.951 121.258 380.727C121.732 380.503 122.286 380.391 122.922 380.391C123.583 380.391 124.161 380.526 124.656 380.797C125.151 381.062 125.539 381.427 125.82 381.891C126.107 382.349 126.263 382.87 126.289 383.453H124.914C124.888 383.104 124.789 382.789 124.617 382.508C124.451 382.227 124.221 382.003 123.93 381.836C123.643 381.664 123.307 381.578 122.922 381.578C122.479 381.578 122.107 381.667 121.805 381.844C121.508 382.016 121.271 382.25 121.094 382.547C120.922 382.839 120.797 383.164 120.719 383.523C120.646 383.878 120.609 384.24 120.609 384.609V384.938C120.609 385.307 120.646 385.672 120.719 386.031C120.792 386.391 120.914 386.716 121.086 387.008C121.263 387.299 121.5 387.534 121.797 387.711C122.099 387.883 122.474 387.969 122.922 387.969ZM131.453 380.547V381.656H126.883V380.547H131.453ZM128.43 378.492H129.875V386.906C129.875 387.193 129.919 387.409 130.008 387.555C130.096 387.701 130.211 387.797 130.352 387.844C130.492 387.891 130.643 387.914 130.805 387.914C130.924 387.914 131.049 387.904 131.18 387.883C131.315 387.857 131.417 387.836 131.484 387.82L131.492 389C131.378 389.036 131.227 389.07 131.039 389.102C130.857 389.138 130.635 389.156 130.375 389.156C130.021 389.156 129.695 389.086 129.398 388.945C129.102 388.805 128.865 388.57 128.688 388.242C128.516 387.909 128.43 387.461 128.43 386.898V378.492ZM134.719 380.547V389H133.266V380.547H134.719ZM133.156 378.305C133.156 378.07 133.227 377.872 133.367 377.711C133.513 377.549 133.727 377.469 134.008 377.469C134.284 377.469 134.495 377.549 134.641 377.711C134.792 377.872 134.867 378.07 134.867 378.305C134.867 378.529 134.792 378.721 134.641 378.883C134.495 379.039 134.284 379.117 134.008 379.117C133.727 379.117 133.513 379.039 133.367 378.883C133.227 378.721 133.156 378.529 133.156 378.305ZM139.609 387.695L141.922 380.547H143.398L140.359 389H139.391L139.609 387.695ZM137.68 380.547L140.062 387.734L140.227 389H139.258L136.195 380.547H137.68ZM146.359 380.547V389H144.906V380.547H146.359ZM144.797 378.305C144.797 378.07 144.867 377.872 145.008 377.711C145.154 377.549 145.367 377.469 145.648 377.469C145.924 377.469 146.135 377.549 146.281 377.711C146.432 377.872 146.508 378.07 146.508 378.305C146.508 378.529 146.432 378.721 146.281 378.883C146.135 379.039 145.924 379.117 145.648 379.117C145.367 379.117 145.154 379.039 145.008 378.883C144.867 378.721 144.797 378.529 144.797 378.305ZM152.219 380.547V381.656H147.648V380.547H152.219ZM149.195 378.492H150.641V386.906C150.641 387.193 150.685 387.409 150.773 387.555C150.862 387.701 150.977 387.797 151.117 387.844C151.258 387.891 151.409 387.914 151.57 387.914C151.69 387.914 151.815 387.904 151.945 387.883C152.081 387.857 152.182 387.836 152.25 387.82L152.258 389C152.143 389.036 151.992 389.07 151.805 389.102C151.622 389.138 151.401 389.156 151.141 389.156C150.786 389.156 150.461 389.086 150.164 388.945C149.867 388.805 149.63 388.57 149.453 388.242C149.281 387.909 149.195 387.461 149.195 386.898V378.492ZM156.289 388.125L158.641 380.547H160.188L156.797 390.305C156.719 390.513 156.615 390.737 156.484 390.977C156.359 391.221 156.198 391.453 156 391.672C155.802 391.891 155.562 392.068 155.281 392.203C155.005 392.344 154.674 392.414 154.289 392.414C154.174 392.414 154.029 392.398 153.852 392.367C153.674 392.336 153.549 392.31 153.477 392.289L153.469 391.117C153.51 391.122 153.576 391.128 153.664 391.133C153.758 391.143 153.823 391.148 153.859 391.148C154.188 391.148 154.466 391.104 154.695 391.016C154.924 390.932 155.117 390.789 155.273 390.586C155.435 390.388 155.573 390.115 155.688 389.766L156.289 388.125ZM154.562 380.547L156.758 387.109L157.133 388.633L156.094 389.164L152.984 380.547H154.562Z" fill="#27374D"/>
<g clip-path="url(#clip11_22_2)">
<path d="M89 389H87V382H89V389ZM93 389H91V379H93V389ZM97 389H95V385H97V389ZM99 391H85V377H99V391ZM99 375H85C83.9 375 83 375.9 83 377V391C83 392.1 83.9 393 85 393H99C100.1 393 101 392.1 101 391V377C101 375.9 100.1 375 99 375Z" fill="#9DB2BF"/>
</g>
<g clip-path="url(#clip12_22_2)">
<path d="M50 378L48.59 379.41L53.17 384L48.59 388.59L50 390L56 384L50 378Z" fill="#9DB2BF"/>
</g>
<path d="M115.383 434.125C115.383 433.859 115.341 433.625 115.258 433.422C115.18 433.214 115.039 433.026 114.836 432.859C114.638 432.693 114.362 432.534 114.008 432.383C113.659 432.232 113.216 432.078 112.68 431.922C112.117 431.755 111.609 431.57 111.156 431.367C110.703 431.159 110.315 430.922 109.992 430.656C109.669 430.391 109.422 430.086 109.25 429.742C109.078 429.398 108.992 429.005 108.992 428.562C108.992 428.12 109.083 427.711 109.266 427.336C109.448 426.961 109.708 426.635 110.047 426.359C110.391 426.078 110.799 425.859 111.273 425.703C111.747 425.547 112.276 425.469 112.859 425.469C113.714 425.469 114.438 425.633 115.031 425.961C115.63 426.284 116.086 426.708 116.398 427.234C116.711 427.755 116.867 428.312 116.867 428.906H115.367C115.367 428.479 115.276 428.102 115.094 427.773C114.911 427.44 114.635 427.18 114.266 426.992C113.896 426.799 113.427 426.703 112.859 426.703C112.323 426.703 111.88 426.784 111.531 426.945C111.182 427.107 110.922 427.326 110.75 427.602C110.583 427.878 110.5 428.193 110.5 428.547C110.5 428.786 110.549 429.005 110.648 429.203C110.753 429.396 110.911 429.576 111.125 429.742C111.344 429.909 111.62 430.062 111.953 430.203C112.292 430.344 112.695 430.479 113.164 430.609C113.81 430.792 114.367 430.995 114.836 431.219C115.305 431.443 115.69 431.695 115.992 431.977C116.299 432.253 116.526 432.568 116.672 432.922C116.823 433.271 116.898 433.667 116.898 434.109C116.898 434.573 116.805 434.992 116.617 435.367C116.43 435.742 116.161 436.062 115.812 436.328C115.464 436.594 115.044 436.799 114.555 436.945C114.07 437.086 113.529 437.156 112.93 437.156C112.404 437.156 111.885 437.083 111.375 436.938C110.87 436.792 110.409 436.573 109.992 436.281C109.581 435.99 109.25 435.63 109 435.203C108.755 434.771 108.633 434.271 108.633 433.703H110.133C110.133 434.094 110.208 434.43 110.359 434.711C110.51 434.987 110.716 435.216 110.977 435.398C111.242 435.581 111.542 435.716 111.875 435.805C112.214 435.888 112.565 435.93 112.93 435.93C113.456 435.93 113.901 435.857 114.266 435.711C114.63 435.565 114.906 435.357 115.094 435.086C115.286 434.815 115.383 434.495 115.383 434.125ZM122.141 428.547V429.656H117.57V428.547H122.141ZM119.117 426.492H120.562V434.906C120.562 435.193 120.607 435.409 120.695 435.555C120.784 435.701 120.898 435.797 121.039 435.844C121.18 435.891 121.331 435.914 121.492 435.914C121.612 435.914 121.737 435.904 121.867 435.883C122.003 435.857 122.104 435.836 122.172 435.82L122.18 437C122.065 437.036 121.914 437.07 121.727 437.102C121.544 437.138 121.323 437.156 121.062 437.156C120.708 437.156 120.383 437.086 120.086 436.945C119.789 436.805 119.552 436.57 119.375 436.242C119.203 435.909 119.117 435.461 119.117 434.898V426.492ZM128.82 435.555V431.203C128.82 430.87 128.753 430.581 128.617 430.336C128.487 430.086 128.289 429.893 128.023 429.758C127.758 429.622 127.43 429.555 127.039 429.555C126.674 429.555 126.354 429.617 126.078 429.742C125.807 429.867 125.594 430.031 125.438 430.234C125.286 430.438 125.211 430.656 125.211 430.891H123.766C123.766 430.589 123.844 430.289 124 429.992C124.156 429.695 124.38 429.427 124.672 429.188C124.969 428.943 125.323 428.75 125.734 428.609C126.151 428.464 126.615 428.391 127.125 428.391C127.74 428.391 128.281 428.495 128.75 428.703C129.224 428.911 129.594 429.227 129.859 429.648C130.13 430.065 130.266 430.589 130.266 431.219V435.156C130.266 435.438 130.289 435.737 130.336 436.055C130.388 436.372 130.464 436.646 130.562 436.875V437H129.055C128.982 436.833 128.924 436.612 128.883 436.336C128.841 436.055 128.82 435.794 128.82 435.555ZM129.07 431.875L129.086 432.891H127.625C127.214 432.891 126.846 432.924 126.523 432.992C126.201 433.055 125.93 433.151 125.711 433.281C125.492 433.411 125.326 433.576 125.211 433.773C125.096 433.966 125.039 434.193 125.039 434.453C125.039 434.719 125.099 434.961 125.219 435.18C125.339 435.398 125.518 435.573 125.758 435.703C126.003 435.828 126.302 435.891 126.656 435.891C127.099 435.891 127.49 435.797 127.828 435.609C128.167 435.422 128.435 435.193 128.633 434.922C128.836 434.651 128.945 434.388 128.961 434.133L129.578 434.828C129.542 435.047 129.443 435.289 129.281 435.555C129.12 435.82 128.904 436.076 128.633 436.32C128.367 436.56 128.049 436.76 127.68 436.922C127.315 437.078 126.904 437.156 126.445 437.156C125.872 437.156 125.37 437.044 124.938 436.82C124.51 436.596 124.177 436.297 123.938 435.922C123.703 435.542 123.586 435.117 123.586 434.648C123.586 434.195 123.674 433.797 123.852 433.453C124.029 433.104 124.284 432.815 124.617 432.586C124.951 432.352 125.352 432.174 125.82 432.055C126.289 431.935 126.812 431.875 127.391 431.875H129.07ZM136.078 428.547V429.656H131.508V428.547H136.078ZM133.055 426.492H134.5V434.906C134.5 435.193 134.544 435.409 134.633 435.555C134.721 435.701 134.836 435.797 134.977 435.844C135.117 435.891 135.268 435.914 135.43 435.914C135.549 435.914 135.674 435.904 135.805 435.883C135.94 435.857 136.042 435.836 136.109 435.82L136.117 437C136.003 437.036 135.852 437.07 135.664 437.102C135.482 437.138 135.26 437.156 135 437.156C134.646 437.156 134.32 437.086 134.023 436.945C133.727 436.805 133.49 436.57 133.312 436.242C133.141 435.909 133.055 435.461 133.055 434.898V426.492ZM139.344 428.547V437H137.891V428.547H139.344ZM137.781 426.305C137.781 426.07 137.852 425.872 137.992 425.711C138.138 425.549 138.352 425.469 138.633 425.469C138.909 425.469 139.12 425.549 139.266 425.711C139.417 425.872 139.492 426.07 139.492 426.305C139.492 426.529 139.417 426.721 139.266 426.883C139.12 427.039 138.909 427.117 138.633 427.117C138.352 427.117 138.138 427.039 137.992 426.883C137.852 426.721 137.781 426.529 137.781 426.305ZM145.047 435.969C145.391 435.969 145.708 435.898 146 435.758C146.292 435.617 146.531 435.424 146.719 435.18C146.906 434.93 147.013 434.646 147.039 434.328H148.414C148.388 434.828 148.219 435.294 147.906 435.727C147.599 436.154 147.195 436.5 146.695 436.766C146.195 437.026 145.646 437.156 145.047 437.156C144.411 437.156 143.857 437.044 143.383 436.82C142.914 436.596 142.523 436.289 142.211 435.898C141.904 435.508 141.672 435.06 141.516 434.555C141.365 434.044 141.289 433.505 141.289 432.938V432.609C141.289 432.042 141.365 431.505 141.516 431C141.672 430.49 141.904 430.039 142.211 429.648C142.523 429.258 142.914 428.951 143.383 428.727C143.857 428.503 144.411 428.391 145.047 428.391C145.708 428.391 146.286 428.526 146.781 428.797C147.276 429.062 147.664 429.427 147.945 429.891C148.232 430.349 148.388 430.87 148.414 431.453H147.039C147.013 431.104 146.914 430.789 146.742 430.508C146.576 430.227 146.346 430.003 146.055 429.836C145.768 429.664 145.432 429.578 145.047 429.578C144.604 429.578 144.232 429.667 143.93 429.844C143.633 430.016 143.396 430.25 143.219 430.547C143.047 430.839 142.922 431.164 142.844 431.523C142.771 431.878 142.734 432.24 142.734 432.609V432.938C142.734 433.307 142.771 433.672 142.844 434.031C142.917 434.391 143.039 434.716 143.211 435.008C143.388 435.299 143.625 435.534 143.922 435.711C144.224 435.883 144.599 435.969 145.047 435.969Z" fill="#27374D"/>
<g clip-path="url(#clip13_22_2)">
<path d="M96 426L98.29 428.29L93.41 433.17L89.41 429.17L82 436.59L83.41 438L89.41 432L93.41 436L99.71 429.71L102 432V426H96Z" fill="#9DB2BF"/>
</g>
<g clip-path="url(#clip14_22_2)">
<path d="M50 426L48.59 427.41L53.17 432L48.59 436.59L50 438L56 432L50 426Z" fill="#9DB2BF"/>
</g>
<rect x="24.5" y="16.5" width="215" height="63" rx="7.5" stroke="black"/>
<rect x="0.5" y="0.5" width="263" height="1079" stroke="black"/>
</g>
<defs>
<clipPath id="clip0_22_2">
<rect width="264" height="1080" fill="white"/>
</clipPath>
<clipPath id="clip1_22_2">
<rect width="24" height="24" fill="white" transform="translate(80 132)"/>
</clipPath>
<clipPath id="clip2_22_2">
<rect width="24" height="24" fill="white" transform="translate(40 132)"/>
</clipPath>
<clipPath id="clip3_22_2">
<rect width="24" height="24" fill="white" transform="translate(80 180)"/>
</clipPath>
<clipPath id="clip4_22_2">
<rect width="24" height="24" fill="white" transform="translate(40 180)"/>
</clipPath>
<clipPath id="clip5_22_2">
<rect width="24" height="24" fill="white" transform="translate(80 228)"/>
</clipPath>
<clipPath id="clip6_22_2">
<rect width="24" height="24" fill="white" transform="translate(40 228)"/>
</clipPath>
<clipPath id="clip7_22_2">
<rect width="24" height="24" fill="white" transform="translate(80 276)"/>
</clipPath>
<clipPath id="clip8_22_2">
<rect width="24" height="24" fill="white" transform="translate(40 276)"/>
</clipPath>
<clipPath id="clip9_22_2">
<rect width="24" height="24" fill="white" transform="translate(80 324)"/>
</clipPath>
<clipPath id="clip10_22_2">
<rect width="24" height="24" fill="white" transform="translate(40 324)"/>
</clipPath>
<clipPath id="clip11_22_2">
<rect width="24" height="24" fill="white" transform="translate(80 372)"/>
</clipPath>
<clipPath id="clip12_22_2">
<rect width="24" height="24" fill="white" transform="translate(40 372)"/>
</clipPath>
<clipPath id="clip13_22_2">
<rect width="24" height="24" fill="white" transform="translate(80 420)"/>
</clipPath>
<clipPath id="clip14_22_2">
<rect width="24" height="24" fill="white" transform="translate(40 420)"/>
</clipPath>
</defs>
</svg>
