<svg width="416" height="320" viewBox="0 0 416 320" fill="none" xmlns="http://www.w3.org/2000/svg">
<g clip-path="url(#clip0_27_133)">
<rect width="416" height="320" fill="white"/>
<rect width="416" height="80" fill="#27374D"/>
<path d="M177.18 45L179.391 33.625H180.516L178.297 45H177.18ZM180.359 45L182.578 33.625H183.695L181.477 45H180.359ZM184.648 37.9609H176.523V36.875H184.648V37.9609ZM184.062 41.7969H175.93V40.7188H184.062V41.7969ZM193.258 43.8125V45H185.812V43.9609L189.539 39.8125C189.997 39.3021 190.352 38.8698 190.602 38.5156C190.857 38.1562 191.034 37.8359 191.133 37.5547C191.237 37.2682 191.289 36.9766 191.289 36.6797C191.289 36.3047 191.211 35.9661 191.055 35.6641C190.904 35.3568 190.68 35.112 190.383 34.9297C190.086 34.7474 189.727 34.6562 189.305 34.6562C188.799 34.6562 188.378 34.7552 188.039 34.9531C187.706 35.1458 187.456 35.4167 187.289 35.7656C187.122 36.1146 187.039 36.5156 187.039 36.9688H185.594C185.594 36.3281 185.734 35.7422 186.016 35.2109C186.297 34.6797 186.714 34.2578 187.266 33.9453C187.818 33.6276 188.497 33.4688 189.305 33.4688C190.023 33.4688 190.638 33.5964 191.148 33.8516C191.659 34.1016 192.049 34.4557 192.32 34.9141C192.596 35.3672 192.734 35.8984 192.734 36.5078C192.734 36.8411 192.677 37.1797 192.562 37.5234C192.453 37.862 192.299 38.2005 192.102 38.5391C191.909 38.8776 191.682 39.2109 191.422 39.5391C191.167 39.8672 190.893 40.1901 190.602 40.5078L187.555 43.8125H193.258ZM202.156 33.625V34.4375L197.445 45H195.922L200.625 34.8125H194.469V33.625H202.156ZM205.914 38.6016H206.945C207.451 38.6016 207.867 38.5182 208.195 38.3516C208.529 38.1797 208.776 37.9479 208.938 37.6562C209.104 37.3594 209.188 37.026 209.188 36.6562C209.188 36.2188 209.115 35.8516 208.969 35.5547C208.823 35.2578 208.604 35.0339 208.312 34.8828C208.021 34.7318 207.651 34.6562 207.203 34.6562C206.797 34.6562 206.438 34.737 206.125 34.8984C205.818 35.0547 205.576 35.2786 205.398 35.5703C205.227 35.862 205.141 36.2057 205.141 36.6016H203.695C203.695 36.0234 203.841 35.4974 204.133 35.0234C204.424 34.5495 204.833 34.1719 205.359 33.8906C205.891 33.6094 206.505 33.4688 207.203 33.4688C207.891 33.4688 208.492 33.5911 209.008 33.8359C209.523 34.0755 209.924 34.4349 210.211 34.9141C210.497 35.388 210.641 35.9792 210.641 36.6875C210.641 36.974 210.573 37.2812 210.438 37.6094C210.307 37.9323 210.102 38.2344 209.82 38.5156C209.544 38.7969 209.185 39.0286 208.742 39.2109C208.299 39.388 207.768 39.4766 207.148 39.4766H205.914V38.6016ZM205.914 39.7891V38.9219H207.148C207.872 38.9219 208.471 39.0078 208.945 39.1797C209.419 39.3516 209.792 39.5807 210.062 39.8672C210.339 40.1536 210.531 40.4688 210.641 40.8125C210.755 41.151 210.812 41.4896 210.812 41.8281C210.812 42.3594 210.721 42.8307 210.539 43.2422C210.362 43.6536 210.109 44.0026 209.781 44.2891C209.458 44.5755 209.078 44.7917 208.641 44.9375C208.203 45.0833 207.727 45.1562 207.211 45.1562C206.716 45.1562 206.25 45.0859 205.812 44.9453C205.38 44.8047 204.997 44.6016 204.664 44.3359C204.331 44.0651 204.07 43.7344 203.883 43.3438C203.695 42.9479 203.602 42.4974 203.602 41.9922H205.047C205.047 42.388 205.133 42.7344 205.305 43.0312C205.482 43.3281 205.732 43.5599 206.055 43.7266C206.383 43.888 206.768 43.9688 207.211 43.9688C207.654 43.9688 208.034 43.8932 208.352 43.7422C208.674 43.5859 208.922 43.3516 209.094 43.0391C209.271 42.7266 209.359 42.3333 209.359 41.8594C209.359 41.3854 209.26 40.9974 209.062 40.6953C208.865 40.388 208.583 40.1615 208.219 40.0156C207.859 39.8646 207.435 39.7891 206.945 39.7891H205.914ZM220.156 33.625V34.4375L215.445 45H213.922L218.625 34.8125H212.469V33.625H220.156ZM229.492 41.1719V42.3594H221.273V41.5078L226.367 33.625H227.547L226.281 35.9062L222.914 41.1719H229.492ZM227.906 33.625V45H226.461V33.625H227.906ZM234.258 45H231.883L231.898 43.7734H234.258C235.07 43.7734 235.747 43.6042 236.289 43.2656C236.831 42.9219 237.237 42.4427 237.508 41.8281C237.784 41.2083 237.922 40.4844 237.922 39.6562V38.9609C237.922 38.3099 237.844 37.7318 237.688 37.2266C237.531 36.7161 237.302 36.2865 237 35.9375C236.698 35.5833 236.328 35.3151 235.891 35.1328C235.458 34.9505 234.961 34.8594 234.398 34.8594H231.836V33.625H234.398C235.143 33.625 235.823 33.75 236.438 34C237.052 34.2448 237.581 34.6016 238.023 35.0703C238.471 35.5339 238.815 36.0964 239.055 36.7578C239.294 37.4141 239.414 38.1536 239.414 38.9766V39.6562C239.414 40.4792 239.294 41.2214 239.055 41.8828C238.815 42.5391 238.469 43.099 238.016 43.5625C237.568 44.026 237.026 44.3828 236.391 44.6328C235.76 44.8776 235.049 45 234.258 45ZM232.688 33.625V45H231.18V33.625H232.688Z" fill="white"/>
<rect width="416" height="80" transform="translate(0 80)" fill="#526D82"/>
<path d="M177.18 125L179.391 113.625H180.516L178.297 125H177.18ZM180.359 125L182.578 113.625H183.695L181.477 125H180.359ZM184.648 117.961H176.523V116.875H184.648V117.961ZM184.062 121.797H175.93V120.719H184.062V121.797ZM187.633 119.586L186.477 119.289L187.047 113.625H192.883V114.961H188.273L187.93 118.055C188.138 117.935 188.401 117.823 188.719 117.719C189.042 117.615 189.411 117.562 189.828 117.562C190.354 117.562 190.826 117.654 191.242 117.836C191.659 118.013 192.013 118.268 192.305 118.602C192.602 118.935 192.828 119.336 192.984 119.805C193.141 120.273 193.219 120.797 193.219 121.375C193.219 121.922 193.143 122.424 192.992 122.883C192.846 123.341 192.625 123.742 192.328 124.086C192.031 124.424 191.656 124.688 191.203 124.875C190.755 125.062 190.227 125.156 189.617 125.156C189.159 125.156 188.724 125.094 188.312 124.969C187.906 124.839 187.542 124.643 187.219 124.383C186.901 124.117 186.641 123.789 186.438 123.398C186.24 123.003 186.115 122.539 186.062 122.008H187.438C187.5 122.435 187.625 122.794 187.812 123.086C188 123.378 188.245 123.599 188.547 123.75C188.854 123.896 189.211 123.969 189.617 123.969C189.961 123.969 190.266 123.909 190.531 123.789C190.797 123.669 191.021 123.497 191.203 123.273C191.385 123.049 191.523 122.779 191.617 122.461C191.716 122.143 191.766 121.786 191.766 121.391C191.766 121.031 191.716 120.698 191.617 120.391C191.518 120.083 191.37 119.815 191.172 119.586C190.979 119.357 190.742 119.18 190.461 119.055C190.18 118.924 189.857 118.859 189.492 118.859C189.008 118.859 188.641 118.924 188.391 119.055C188.146 119.185 187.893 119.362 187.633 119.586ZM202.258 123.812V125H194.812V123.961L198.539 119.812C198.997 119.302 199.352 118.87 199.602 118.516C199.857 118.156 200.034 117.836 200.133 117.555C200.237 117.268 200.289 116.977 200.289 116.68C200.289 116.305 200.211 115.966 200.055 115.664C199.904 115.357 199.68 115.112 199.383 114.93C199.086 114.747 198.727 114.656 198.305 114.656C197.799 114.656 197.378 114.755 197.039 114.953C196.706 115.146 196.456 115.417 196.289 115.766C196.122 116.115 196.039 116.516 196.039 116.969H194.594C194.594 116.328 194.734 115.742 195.016 115.211C195.297 114.68 195.714 114.258 196.266 113.945C196.818 113.628 197.497 113.469 198.305 113.469C199.023 113.469 199.638 113.596 200.148 113.852C200.659 114.102 201.049 114.456 201.32 114.914C201.596 115.367 201.734 115.898 201.734 116.508C201.734 116.841 201.677 117.18 201.562 117.523C201.453 117.862 201.299 118.201 201.102 118.539C200.909 118.878 200.682 119.211 200.422 119.539C200.167 119.867 199.893 120.19 199.602 120.508L196.555 123.812H202.258ZM209.352 113.609H209.477V114.836H209.352C208.586 114.836 207.945 114.961 207.43 115.211C206.914 115.456 206.505 115.786 206.203 116.203C205.901 116.615 205.682 117.078 205.547 117.594C205.417 118.109 205.352 118.633 205.352 119.164V120.836C205.352 121.341 205.411 121.789 205.531 122.18C205.651 122.565 205.815 122.891 206.023 123.156C206.232 123.422 206.466 123.622 206.727 123.758C206.992 123.893 207.268 123.961 207.555 123.961C207.888 123.961 208.185 123.898 208.445 123.773C208.706 123.643 208.924 123.464 209.102 123.234C209.284 123 209.422 122.724 209.516 122.406C209.609 122.089 209.656 121.74 209.656 121.359C209.656 121.021 209.615 120.695 209.531 120.383C209.448 120.065 209.32 119.784 209.148 119.539C208.977 119.289 208.76 119.094 208.5 118.953C208.245 118.807 207.94 118.734 207.586 118.734C207.185 118.734 206.81 118.833 206.461 119.031C206.117 119.224 205.833 119.479 205.609 119.797C205.391 120.109 205.266 120.451 205.234 120.82L204.469 120.812C204.542 120.229 204.677 119.732 204.875 119.32C205.078 118.904 205.328 118.565 205.625 118.305C205.927 118.039 206.263 117.846 206.633 117.727C207.008 117.602 207.404 117.539 207.82 117.539C208.388 117.539 208.878 117.646 209.289 117.859C209.701 118.073 210.039 118.359 210.305 118.719C210.57 119.073 210.766 119.474 210.891 119.922C211.021 120.365 211.086 120.82 211.086 121.289C211.086 121.826 211.01 122.328 210.859 122.797C210.708 123.266 210.482 123.677 210.18 124.031C209.883 124.385 209.516 124.661 209.078 124.859C208.641 125.057 208.133 125.156 207.555 125.156C206.94 125.156 206.404 125.031 205.945 124.781C205.487 124.526 205.107 124.188 204.805 123.766C204.503 123.344 204.276 122.875 204.125 122.359C203.974 121.844 203.898 121.32 203.898 120.789V120.109C203.898 119.307 203.979 118.521 204.141 117.75C204.302 116.979 204.581 116.281 204.977 115.656C205.378 115.031 205.932 114.534 206.641 114.164C207.349 113.794 208.253 113.609 209.352 113.609ZM216.258 125H213.883L213.898 123.773H216.258C217.07 123.773 217.747 123.604 218.289 123.266C218.831 122.922 219.237 122.443 219.508 121.828C219.784 121.208 219.922 120.484 219.922 119.656V118.961C219.922 118.31 219.844 117.732 219.688 117.227C219.531 116.716 219.302 116.286 219 115.938C218.698 115.583 218.328 115.315 217.891 115.133C217.458 114.951 216.961 114.859 216.398 114.859H213.836V113.625H216.398C217.143 113.625 217.823 113.75 218.438 114C219.052 114.245 219.581 114.602 220.023 115.07C220.471 115.534 220.815 116.096 221.055 116.758C221.294 117.414 221.414 118.154 221.414 118.977V119.656C221.414 120.479 221.294 121.221 221.055 121.883C220.815 122.539 220.469 123.099 220.016 123.562C219.568 124.026 219.026 124.383 218.391 124.633C217.76 124.878 217.049 125 216.258 125ZM214.688 113.625V125H213.18V113.625H214.688ZM230.477 121.922C230.477 122.615 230.315 123.203 229.992 123.688C229.674 124.167 229.242 124.531 228.695 124.781C228.154 125.031 227.542 125.156 226.859 125.156C226.177 125.156 225.562 125.031 225.016 124.781C224.469 124.531 224.036 124.167 223.719 123.688C223.401 123.203 223.242 122.615 223.242 121.922C223.242 121.469 223.328 121.055 223.5 120.68C223.677 120.299 223.924 119.969 224.242 119.688C224.565 119.406 224.945 119.19 225.383 119.039C225.826 118.883 226.312 118.805 226.844 118.805C227.542 118.805 228.164 118.94 228.711 119.211C229.258 119.477 229.688 119.844 230 120.312C230.318 120.781 230.477 121.318 230.477 121.922ZM229.023 121.891C229.023 121.469 228.932 121.096 228.75 120.773C228.568 120.445 228.312 120.19 227.984 120.008C227.656 119.826 227.276 119.734 226.844 119.734C226.401 119.734 226.018 119.826 225.695 120.008C225.378 120.19 225.13 120.445 224.953 120.773C224.776 121.096 224.688 121.469 224.688 121.891C224.688 122.328 224.773 122.703 224.945 123.016C225.122 123.323 225.372 123.56 225.695 123.727C226.023 123.888 226.411 123.969 226.859 123.969C227.307 123.969 227.693 123.888 228.016 123.727C228.339 123.56 228.586 123.323 228.758 123.016C228.935 122.703 229.023 122.328 229.023 121.891ZM230.211 116.586C230.211 117.138 230.065 117.635 229.773 118.078C229.482 118.521 229.083 118.87 228.578 119.125C228.073 119.38 227.5 119.508 226.859 119.508C226.208 119.508 225.628 119.38 225.117 119.125C224.612 118.87 224.216 118.521 223.93 118.078C223.643 117.635 223.5 117.138 223.5 116.586C223.5 115.924 223.643 115.362 223.93 114.898C224.221 114.435 224.62 114.081 225.125 113.836C225.63 113.591 226.206 113.469 226.852 113.469C227.503 113.469 228.081 113.591 228.586 113.836C229.091 114.081 229.487 114.435 229.773 114.898C230.065 115.362 230.211 115.924 230.211 116.586ZM228.766 116.609C228.766 116.229 228.685 115.893 228.523 115.602C228.362 115.31 228.138 115.081 227.852 114.914C227.565 114.742 227.232 114.656 226.852 114.656C226.471 114.656 226.138 114.737 225.852 114.898C225.57 115.055 225.349 115.279 225.188 115.57C225.031 115.862 224.953 116.208 224.953 116.609C224.953 117 225.031 117.341 225.188 117.633C225.349 117.924 225.573 118.151 225.859 118.312C226.146 118.474 226.479 118.555 226.859 118.555C227.24 118.555 227.57 118.474 227.852 118.312C228.138 118.151 228.362 117.924 228.523 117.633C228.685 117.341 228.766 117 228.766 116.609ZM239.758 123.812V125H232.312V123.961L236.039 119.812C236.497 119.302 236.852 118.87 237.102 118.516C237.357 118.156 237.534 117.836 237.633 117.555C237.737 117.268 237.789 116.977 237.789 116.68C237.789 116.305 237.711 115.966 237.555 115.664C237.404 115.357 237.18 115.112 236.883 114.93C236.586 114.747 236.227 114.656 235.805 114.656C235.299 114.656 234.878 114.755 234.539 114.953C234.206 115.146 233.956 115.417 233.789 115.766C233.622 116.115 233.539 116.516 233.539 116.969H232.094C232.094 116.328 232.234 115.742 232.516 115.211C232.797 114.68 233.214 114.258 233.766 113.945C234.318 113.628 234.997 113.469 235.805 113.469C236.523 113.469 237.138 113.596 237.648 113.852C238.159 114.102 238.549 114.456 238.82 114.914C239.096 115.367 239.234 115.898 239.234 116.508C239.234 116.841 239.177 117.18 239.062 117.523C238.953 117.862 238.799 118.201 238.602 118.539C238.409 118.878 238.182 119.211 237.922 119.539C237.667 119.867 237.393 120.19 237.102 120.508L234.055 123.812H239.758Z" fill="white"/>
<rect width="416" height="80" transform="translate(0 160)" fill="#9DB2BF"/>
<path d="M177.18 205L179.391 193.625H180.516L178.297 205H177.18ZM180.359 205L182.578 193.625H183.695L181.477 205H180.359ZM184.648 197.961H176.523V196.875H184.648V197.961ZM184.062 201.797H175.93V200.719H184.062V201.797ZM187.242 203.789H187.391C188.224 203.789 188.901 203.672 189.422 203.438C189.943 203.203 190.344 202.888 190.625 202.492C190.906 202.096 191.099 201.651 191.203 201.156C191.307 200.656 191.359 200.143 191.359 199.617V197.875C191.359 197.359 191.299 196.901 191.18 196.5C191.065 196.099 190.904 195.763 190.695 195.492C190.492 195.221 190.26 195.016 190 194.875C189.74 194.734 189.464 194.664 189.172 194.664C188.839 194.664 188.539 194.732 188.273 194.867C188.013 194.997 187.792 195.182 187.609 195.422C187.432 195.661 187.297 195.943 187.203 196.266C187.109 196.589 187.062 196.94 187.062 197.32C187.062 197.659 187.104 197.987 187.188 198.305C187.271 198.622 187.398 198.909 187.57 199.164C187.742 199.419 187.956 199.622 188.211 199.773C188.471 199.919 188.776 199.992 189.125 199.992C189.448 199.992 189.75 199.93 190.031 199.805C190.318 199.674 190.57 199.5 190.789 199.281C191.013 199.057 191.19 198.805 191.32 198.523C191.456 198.242 191.534 197.948 191.555 197.641H192.242C192.242 198.073 192.156 198.5 191.984 198.922C191.818 199.339 191.583 199.719 191.281 200.062C190.979 200.406 190.625 200.682 190.219 200.891C189.812 201.094 189.37 201.195 188.891 201.195C188.328 201.195 187.841 201.086 187.43 200.867C187.018 200.648 186.68 200.357 186.414 199.992C186.154 199.628 185.958 199.221 185.828 198.773C185.703 198.32 185.641 197.862 185.641 197.398C185.641 196.857 185.716 196.349 185.867 195.875C186.018 195.401 186.242 194.984 186.539 194.625C186.836 194.26 187.203 193.977 187.641 193.773C188.083 193.57 188.594 193.469 189.172 193.469C189.823 193.469 190.378 193.599 190.836 193.859C191.294 194.12 191.667 194.469 191.953 194.906C192.245 195.344 192.458 195.836 192.594 196.383C192.729 196.93 192.797 197.492 192.797 198.07V198.594C192.797 199.182 192.758 199.781 192.68 200.391C192.607 200.995 192.464 201.573 192.25 202.125C192.042 202.677 191.737 203.172 191.336 203.609C190.935 204.042 190.411 204.385 189.766 204.641C189.125 204.891 188.333 205.016 187.391 205.016H187.242V203.789ZM198.258 205H195.883L195.898 203.773H198.258C199.07 203.773 199.747 203.604 200.289 203.266C200.831 202.922 201.237 202.443 201.508 201.828C201.784 201.208 201.922 200.484 201.922 199.656V198.961C201.922 198.31 201.844 197.732 201.688 197.227C201.531 196.716 201.302 196.286 201 195.938C200.698 195.583 200.328 195.315 199.891 195.133C199.458 194.951 198.961 194.859 198.398 194.859H195.836V193.625H198.398C199.143 193.625 199.823 193.75 200.438 194C201.052 194.245 201.581 194.602 202.023 195.07C202.471 195.534 202.815 196.096 203.055 196.758C203.294 197.414 203.414 198.154 203.414 198.977V199.656C203.414 200.479 203.294 201.221 203.055 201.883C202.815 202.539 202.469 203.099 202.016 203.562C201.568 204.026 201.026 204.383 200.391 204.633C199.76 204.878 199.049 205 198.258 205ZM196.688 193.625V205H195.18V193.625H196.688ZM209.734 199.68H206.852L206.836 198.469H209.453C209.885 198.469 210.263 198.396 210.586 198.25C210.909 198.104 211.159 197.896 211.336 197.625C211.518 197.349 211.609 197.021 211.609 196.641C211.609 196.224 211.529 195.885 211.367 195.625C211.211 195.359 210.969 195.167 210.641 195.047C210.318 194.922 209.906 194.859 209.406 194.859H207.188V205H205.68V193.625H209.406C209.99 193.625 210.51 193.685 210.969 193.805C211.427 193.919 211.815 194.102 212.133 194.352C212.456 194.596 212.701 194.909 212.867 195.289C213.034 195.669 213.117 196.125 213.117 196.656C213.117 197.125 212.997 197.549 212.758 197.93C212.518 198.305 212.185 198.612 211.758 198.852C211.336 199.091 210.841 199.245 210.273 199.312L209.734 199.68ZM209.664 205H206.258L207.109 203.773H209.664C210.143 203.773 210.549 203.69 210.883 203.523C211.221 203.357 211.479 203.122 211.656 202.82C211.833 202.513 211.922 202.151 211.922 201.734C211.922 201.312 211.846 200.948 211.695 200.641C211.544 200.333 211.307 200.096 210.984 199.93C210.661 199.763 210.245 199.68 209.734 199.68H207.586L207.602 198.469H210.539L210.859 198.906C211.406 198.953 211.87 199.109 212.25 199.375C212.63 199.635 212.919 199.969 213.117 200.375C213.32 200.781 213.422 201.229 213.422 201.719C213.422 202.427 213.266 203.026 212.953 203.516C212.646 204 212.211 204.37 211.648 204.625C211.086 204.875 210.424 205 209.664 205ZM222.727 203.812V205H215.281V203.961L219.008 199.812C219.466 199.302 219.82 198.87 220.07 198.516C220.326 198.156 220.503 197.836 220.602 197.555C220.706 197.268 220.758 196.977 220.758 196.68C220.758 196.305 220.68 195.966 220.523 195.664C220.372 195.357 220.148 195.112 219.852 194.93C219.555 194.747 219.195 194.656 218.773 194.656C218.268 194.656 217.846 194.755 217.508 194.953C217.174 195.146 216.924 195.417 216.758 195.766C216.591 196.115 216.508 196.516 216.508 196.969H215.062C215.062 196.328 215.203 195.742 215.484 195.211C215.766 194.68 216.182 194.258 216.734 193.945C217.286 193.628 217.966 193.469 218.773 193.469C219.492 193.469 220.107 193.596 220.617 193.852C221.128 194.102 221.518 194.456 221.789 194.914C222.065 195.367 222.203 195.898 222.203 196.508C222.203 196.841 222.146 197.18 222.031 197.523C221.922 197.862 221.768 198.201 221.57 198.539C221.378 198.878 221.151 199.211 220.891 199.539C220.635 199.867 220.362 200.19 220.07 200.508L217.023 203.812H222.727ZM228.703 199.68H225.82L225.805 198.469H228.422C228.854 198.469 229.232 198.396 229.555 198.25C229.878 198.104 230.128 197.896 230.305 197.625C230.487 197.349 230.578 197.021 230.578 196.641C230.578 196.224 230.497 195.885 230.336 195.625C230.18 195.359 229.938 195.167 229.609 195.047C229.286 194.922 228.875 194.859 228.375 194.859H226.156V205H224.648V193.625H228.375C228.958 193.625 229.479 193.685 229.938 193.805C230.396 193.919 230.784 194.102 231.102 194.352C231.424 194.596 231.669 194.909 231.836 195.289C232.003 195.669 232.086 196.125 232.086 196.656C232.086 197.125 231.966 197.549 231.727 197.93C231.487 198.305 231.154 198.612 230.727 198.852C230.305 199.091 229.81 199.245 229.242 199.312L228.703 199.68ZM228.633 205H225.227L226.078 203.773H228.633C229.112 203.773 229.518 203.69 229.852 203.523C230.19 203.357 230.448 203.122 230.625 202.82C230.802 202.513 230.891 202.151 230.891 201.734C230.891 201.312 230.815 200.948 230.664 200.641C230.513 200.333 230.276 200.096 229.953 199.93C229.63 199.763 229.214 199.68 228.703 199.68H226.555L226.57 198.469H229.508L229.828 198.906C230.375 198.953 230.839 199.109 231.219 199.375C231.599 199.635 231.888 199.969 232.086 200.375C232.289 200.781 232.391 201.229 232.391 201.719C232.391 202.427 232.234 203.026 231.922 203.516C231.615 204 231.18 204.37 230.617 204.625C230.055 204.875 229.393 205 228.633 205ZM236.125 193.625V205H234.617V193.625H236.125ZM240.891 198.742V199.977H235.797V198.742H240.891ZM241.664 193.625V194.859H235.797V193.625H241.664Z" fill="black"/>
<rect width="416" height="80" transform="translate(0 240)" fill="#DDE6ED"/>
<path d="M177.18 285L179.391 273.625H180.516L178.297 285H177.18ZM180.359 285L182.578 273.625H183.695L181.477 285H180.359ZM184.648 277.961H176.523V276.875H184.648V277.961ZM184.062 281.797H175.93V280.719H184.062V281.797ZM189.258 285H186.883L186.898 283.773H189.258C190.07 283.773 190.747 283.604 191.289 283.266C191.831 282.922 192.237 282.443 192.508 281.828C192.784 281.208 192.922 280.484 192.922 279.656V278.961C192.922 278.31 192.844 277.732 192.688 277.227C192.531 276.716 192.302 276.286 192 275.938C191.698 275.583 191.328 275.315 190.891 275.133C190.458 274.951 189.961 274.859 189.398 274.859H186.836V273.625H189.398C190.143 273.625 190.823 273.75 191.438 274C192.052 274.245 192.581 274.602 193.023 275.07C193.471 275.534 193.815 276.096 194.055 276.758C194.294 277.414 194.414 278.154 194.414 278.977V279.656C194.414 280.479 194.294 281.221 194.055 281.883C193.815 282.539 193.469 283.099 193.016 283.562C192.568 284.026 192.026 284.383 191.391 284.633C190.76 284.878 190.049 285 189.258 285ZM187.688 273.625V285H186.18V273.625H187.688ZM199.758 285H197.383L197.398 283.773H199.758C200.57 283.773 201.247 283.604 201.789 283.266C202.331 282.922 202.737 282.443 203.008 281.828C203.284 281.208 203.422 280.484 203.422 279.656V278.961C203.422 278.31 203.344 277.732 203.188 277.227C203.031 276.716 202.802 276.286 202.5 275.938C202.198 275.583 201.828 275.315 201.391 275.133C200.958 274.951 200.461 274.859 199.898 274.859H197.336V273.625H199.898C200.643 273.625 201.323 273.75 201.938 274C202.552 274.245 203.081 274.602 203.523 275.07C203.971 275.534 204.315 276.096 204.555 276.758C204.794 277.414 204.914 278.154 204.914 278.977V279.656C204.914 280.479 204.794 281.221 204.555 281.883C204.315 282.539 203.969 283.099 203.516 283.562C203.068 284.026 202.526 284.383 201.891 284.633C201.26 284.878 200.549 285 199.758 285ZM198.188 273.625V285H196.68V273.625H198.188ZM214.406 283.773V285H208.383V283.773H214.406ZM208.688 273.625V285H207.18V273.625H208.688ZM213.609 278.516V279.742H208.383V278.516H213.609ZM214.328 273.625V274.859H208.383V273.625H214.328ZM221.445 273.609H221.57V274.836H221.445C220.68 274.836 220.039 274.961 219.523 275.211C219.008 275.456 218.599 275.786 218.297 276.203C217.995 276.615 217.776 277.078 217.641 277.594C217.51 278.109 217.445 278.633 217.445 279.164V280.836C217.445 281.341 217.505 281.789 217.625 282.18C217.745 282.565 217.909 282.891 218.117 283.156C218.326 283.422 218.56 283.622 218.82 283.758C219.086 283.893 219.362 283.961 219.648 283.961C219.982 283.961 220.279 283.898 220.539 283.773C220.799 283.643 221.018 283.464 221.195 283.234C221.378 283 221.516 282.724 221.609 282.406C221.703 282.089 221.75 281.74 221.75 281.359C221.75 281.021 221.708 280.695 221.625 280.383C221.542 280.065 221.414 279.784 221.242 279.539C221.07 279.289 220.854 279.094 220.594 278.953C220.339 278.807 220.034 278.734 219.68 278.734C219.279 278.734 218.904 278.833 218.555 279.031C218.211 279.224 217.927 279.479 217.703 279.797C217.484 280.109 217.359 280.451 217.328 280.82L216.562 280.812C216.635 280.229 216.771 279.732 216.969 279.32C217.172 278.904 217.422 278.565 217.719 278.305C218.021 278.039 218.357 277.846 218.727 277.727C219.102 277.602 219.497 277.539 219.914 277.539C220.482 277.539 220.971 277.646 221.383 277.859C221.794 278.073 222.133 278.359 222.398 278.719C222.664 279.073 222.859 279.474 222.984 279.922C223.115 280.365 223.18 280.82 223.18 281.289C223.18 281.826 223.104 282.328 222.953 282.797C222.802 283.266 222.576 283.677 222.273 284.031C221.977 284.385 221.609 284.661 221.172 284.859C220.734 285.057 220.227 285.156 219.648 285.156C219.034 285.156 218.497 285.031 218.039 284.781C217.581 284.526 217.201 284.188 216.898 283.766C216.596 283.344 216.37 282.875 216.219 282.359C216.068 281.844 215.992 281.32 215.992 280.789V280.109C215.992 279.307 216.073 278.521 216.234 277.75C216.396 276.979 216.674 276.281 217.07 275.656C217.471 275.031 218.026 274.534 218.734 274.164C219.443 273.794 220.346 273.609 221.445 273.609ZM232.5 283.773V285H226.477V283.773H232.5ZM226.781 273.625V285H225.273V273.625H226.781ZM231.703 278.516V279.742H226.477V278.516H231.703ZM232.422 273.625V274.859H226.477V273.625H232.422ZM237.445 285H235.07L235.086 283.773H237.445C238.258 283.773 238.935 283.604 239.477 283.266C240.018 282.922 240.424 282.443 240.695 281.828C240.971 281.208 241.109 280.484 241.109 279.656V278.961C241.109 278.31 241.031 277.732 240.875 277.227C240.719 276.716 240.49 276.286 240.188 275.938C239.885 275.583 239.516 275.315 239.078 275.133C238.646 274.951 238.148 274.859 237.586 274.859H235.023V273.625H237.586C238.331 273.625 239.01 273.75 239.625 274C240.24 274.245 240.768 274.602 241.211 275.07C241.659 275.534 242.003 276.096 242.242 276.758C242.482 277.414 242.602 278.154 242.602 278.977V279.656C242.602 280.479 242.482 281.221 242.242 281.883C242.003 282.539 241.656 283.099 241.203 283.562C240.755 284.026 240.214 284.383 239.578 284.633C238.948 284.878 238.237 285 237.445 285ZM235.875 273.625V285H234.367V273.625H235.875Z" fill="black"/>
</g>
<defs>
<clipPath id="clip0_27_133">
<rect width="416" height="320" fill="white"/>
</clipPath>
</defs>
</svg>
